<?xml version="1.0" standalone="no"?>
<!DOCTYPE svg PUBLIC "-//W3C//DTD SVG 20010904//EN"
 "http://www.w3.org/TR/2001/REC-SVG-20010904/DTD/svg10.dtd">
<svg version="1.0" xmlns="http://www.w3.org/2000/svg"
 width="3202.000000pt" height="3217.000000pt" viewBox="0 0 3202.000000 3217.000000"
 preserveAspectRatio="xMidYMid meet">

<g transform="translate(0.000000,3217.000000) scale(0.100000,-0.100000)"
fill="#000000" stroke="none">
<path d="M15090 32125 l0 -45 73 0 c39 0 89 -5 109 -10 32 -9 39 -17 48 -50
17 -62 9 -1548 -8 -1578 -17 -30 -49 -41 -138 -49 l-74 -6 0 -43 0 -44 295 0
295 0 0 44 0 43 -92 6 c-115 6 -145 19 -159 66 -6 24 -9 276 -7 741 l3 704
479 -709 c264 -391 512 -757 552 -815 l72 -105 46 3 45 4 3 856 c3 951 0 906
68 929 19 7 63 12 98 12 l62 1 0 45 0 45 -285 0 -285 0 0 -45 0 -45 68 0 c102
0 140 -14 160 -58 15 -32 17 -92 20 -484 2 -247 0 -448 -5 -448 -4 0 -172 243
-372 540 l-365 540 -353 0 -353 0 0 -45z"/>
<path d="M15973 29958 c-6 -7 -85 -497 -177 -1088 -92 -591 -169 -1079 -170
-1085 -2 -5 -6 -3 -9 5 -3 8 -8 24 -12 35 l-7 20 -8 -20 c-5 -11 -9 -92 -9
-180 -1 -138 -13 -262 -37 -378 -5 -26 -8 -28 -52 -25 l-47 3 -7 140 c-11 215
-26 409 -34 428 -25 67 -31 -91 -13 -388 5 -97 8 -179 6 -182 -3 -2 -36 -7
-75 -10 l-69 -6 -7 64 c-3 35 -10 136 -16 224 -14 216 -25 295 -40 295 -19 0
-19 -96 -2 -333 l17 -248 -20 -5 c-12 -3 -46 -4 -76 -2 l-54 3 -8 90 c-48 562
-89 996 -95 1019 -4 16 -13 31 -20 34 -20 6 -15 -90 33 -636 25 -283 44 -516
42 -518 -2 -2 -36 -7 -75 -10 -49 -5 -72 -3 -72 4 0 6 -11 118 -25 249 -26
242 -40 323 -56 323 -15 0 -9 -155 15 -370 12 -113 20 -208 17 -212 -3 -4 -36
-10 -73 -14 -80 -8 -69 -31 -98 216 -26 227 -40 310 -55 339 l-12 24 -6 -32
c-6 -28 11 -203 44 -459 6 -51 10 -94 8 -97 -9 -9 -134 -24 -140 -17 -4 4 -21
111 -39 237 -32 239 -54 340 -70 330 -16 -10 -12 -59 25 -327 19 -139 35 -254
35 -254 0 -1 -27 -5 -61 -8 -33 -4 -66 -9 -73 -12 -9 -4 -18 24 -30 103 -64
401 -79 473 -96 473 -18 0 -11 -89 25 -319 19 -124 36 -235 38 -246 2 -17 -8
-21 -68 -31 -38 -7 -71 -11 -73 -9 -2 1 -43 231 -93 511 -102 581 -111 624
-131 624 -21 0 0 -152 86 -638 47 -265 86 -489 86 -496 0 -16 -128 -42 -140
-29 -4 4 -28 118 -54 252 -26 134 -55 260 -64 280 l-16 36 -4 -50 c-2 -30 15
-144 43 -289 25 -131 42 -242 38 -246 -9 -8 -134 -33 -137 -28 -1 2 -24 107
-50 233 -48 228 -70 311 -87 330 -22 23 -5 -111 41 -331 37 -174 47 -239 39
-245 -14 -8 -130 -32 -133 -27 -1 2 -24 98 -50 213 -55 237 -81 331 -98 341
-21 13 0 -123 52 -345 27 -118 47 -218 43 -222 -5 -3 -36 -13 -71 -22 -47 -11
-64 -12 -67 -4 -3 7 -27 104 -55 217 -59 240 -77 300 -96 320 -29 30 -14 -67
46 -310 42 -169 57 -246 50 -250 -22 -14 -122 -32 -130 -23 -4 4 -65 222 -134
483 -142 533 -160 593 -183 612 -15 12 -16 8 -11 -42 4 -30 68 -284 143 -564
75 -279 134 -510 132 -512 -2 -3 -34 -13 -71 -23 l-66 -18 -19 66 c-11 36 -41
140 -67 231 -50 176 -75 243 -95 255 -22 14 -1 -86 68 -327 36 -126 61 -233
57 -237 -12 -10 -125 -44 -130 -38 -2 2 -35 105 -73 228 -67 222 -103 319
-117 319 -18 0 12 -137 75 -340 38 -123 69 -225 68 -226 -4 -4 -141 -43 -142
-41 -42 145 -172 513 -186 529 l-20 23 5 -50 c4 -27 40 -155 82 -284 41 -128
74 -234 72 -236 -8 -7 -132 -44 -135 -41 -2 2 -39 104 -82 227 -43 123 -89
244 -102 269 l-24 45 -3 -33 c-2 -22 25 -116 80 -278 65 -193 80 -247 69 -253
-21 -13 -120 -45 -124 -40 -2 2 -84 225 -182 494 -174 481 -220 594 -237 577
-14 -14 25 -137 201 -615 94 -258 171 -472 171 -476 0 -7 -129 -55 -135 -49
-2 2 -38 93 -80 203 -87 228 -131 325 -147 325 -21 0 3 -81 92 -312 49 -128
86 -235 82 -239 -19 -16 -124 -51 -131 -43 -4 5 -41 92 -81 194 -78 198 -132
314 -151 326 -26 16 4 -84 92 -304 50 -125 93 -232 96 -238 2 -6 -4 -14 -14
-16 -10 -3 -41 -15 -69 -26 l-52 -21 -87 207 c-101 239 -127 293 -149 311 -41
34 -11 -55 123 -369 l70 -165 -61 -28 c-33 -16 -66 -26 -72 -24 -6 3 -33 56
-60 118 -122 282 -206 440 -206 387 0 -27 37 -121 129 -327 50 -112 91 -204
91 -206 0 -4 -117 -55 -127 -55 -6 0 -104 201 -218 448 -214 461 -263 560
-290 582 -12 10 -15 10 -15 -3 0 -33 53 -155 259 -596 117 -249 209 -457 204
-462 -4 -4 -34 -19 -66 -33 l-58 -25 -114 232 c-113 229 -147 288 -160 275
-13 -12 26 -107 130 -318 l104 -210 -67 -34 -67 -34 -113 222 c-62 122 -126
238 -142 257 l-29 34 -1 -27 c0 -16 51 -127 121 -264 66 -130 117 -240 112
-244 -4 -4 -33 -21 -64 -38 l-56 -32 -113 213 c-62 116 -127 232 -144 257 -28
41 -31 43 -34 21 -4 -25 45 -129 173 -368 l75 -142 -62 -35 c-35 -19 -66 -32
-69 -28 -4 4 -59 101 -124 217 -64 115 -128 225 -143 245 -25 32 -27 33 -30
13 -4 -25 29 -92 162 -332 53 -96 95 -175 94 -176 -2 -1 -29 -17 -61 -35 -50
-27 -61 -30 -72 -19 -7 8 -124 208 -260 444 -251 435 -291 501 -319 524 -14
11 -16 11 -16 -3 0 -9 6 -32 14 -50 11 -26 445 -785 528 -923 l19 -31 -61 -37
c-33 -20 -64 -34 -68 -31 -5 3 -64 97 -132 210 -128 214 -173 276 -186 263
-11 -11 38 -105 164 -316 61 -102 109 -188 106 -192 -5 -8 -108 -69 -116 -69
-3 0 -63 93 -134 206 -71 113 -143 222 -161 242 -30 34 -32 35 -33 14 0 -31
13 -55 157 -284 67 -109 123 -201 123 -205 0 -5 -26 -25 -58 -45 -44 -29 -59
-35 -68 -25 -6 7 -67 100 -137 207 -128 197 -187 275 -194 253 -7 -19 38 -97
171 -301 69 -107 126 -195 126 -196 0 -6 -110 -76 -118 -76 -4 0 -71 93 -149
208 -135 198 -186 262 -199 250 -10 -11 43 -102 175 -297 l131 -195 -53 -37
c-28 -21 -57 -39 -63 -39 -6 0 -145 191 -308 424 -299 428 -367 518 -382 503
-14 -14 29 -82 335 -519 165 -235 302 -431 305 -436 5 -8 -112 -98 -118 -90
-137 191 -296 404 -322 429 -30 29 -34 31 -34 13 0 -26 44 -93 199 -304 l121
-165 -38 -32 c-40 -35 -80 -59 -85 -52 -2 2 -75 98 -162 212 -150 197 -196
249 -203 228 -6 -18 29 -72 178 -271 83 -110 150 -202 150 -205 0 -5 -105 -85
-112 -85 -3 0 -73 87 -156 193 -155 198 -207 256 -219 243 -13 -12 28 -73 184
-273 84 -108 150 -200 146 -203 -64 -53 -104 -81 -112 -75 -6 3 -67 76 -137
163 -126 157 -221 262 -236 262 -29 0 26 -80 206 -300 126 -155 134 -166 116
-180 -10 -8 -35 -29 -57 -47 l-40 -32 -351 418 c-330 394 -412 483 -412 448 0
-26 53 -94 383 -487 180 -214 330 -396 333 -404 4 -11 -83 -96 -99 -96 -3 0
-83 88 -177 195 -161 184 -213 235 -226 222 -12 -11 38 -76 201 -263 l165
-189 -53 -47 c-28 -26 -55 -48 -58 -48 -3 0 -55 55 -115 122 -219 246 -294
317 -294 279 0 -15 76 -108 227 -274 79 -87 143 -162 143 -167 0 -21 -36 -15
-131 20 -137 50 -124 41 -208 134 -90 99 -174 172 -179 157 -5 -15 21 -55 77
-116 96 -104 96 -100 5 -67 -43 16 -220 80 -393 142 -330 119 -343 122 -349
69 -1 -13 54 -181 123 -372 69 -191 125 -350 125 -353 0 -3 -24 16 -54 43 -30
26 -68 56 -85 66 -29 17 -31 17 -31 1 0 -9 48 -63 106 -120 l106 -103 53 -145
c29 -80 51 -146 48 -146 -2 0 -77 66 -166 147 -89 80 -184 164 -210 185 -46
36 -77 48 -77 30 0 -13 100 -111 266 -259 l152 -137 -45 -53 c-25 -29 -49 -53
-52 -53 -4 0 -87 69 -184 154 -193 167 -249 210 -268 204 -20 -7 51 -78 243
-245 l178 -155 -46 -54 c-26 -30 -48 -54 -50 -54 -2 0 -190 156 -417 346 -393
330 -487 402 -487 371 0 -22 90 -101 480 -427 206 -172 379 -317 384 -321 8
-7 -71 -119 -84 -119 -3 0 -84 64 -180 141 -187 152 -277 216 -287 206 -14
-15 37 -63 231 -221 l206 -167 -42 -54 c-24 -30 -47 -54 -51 -54 -5 -1 -89 62
-188 139 -189 149 -275 207 -286 196 -12 -12 69 -85 259 -233 l187 -146 -45
-59 c-31 -40 -50 -56 -57 -50 -7 5 -103 77 -214 160 -191 143 -237 171 -250
158 -12 -12 44 -59 242 -209 110 -83 202 -151 203 -153 6 -4 -80 -114 -89
-114 -5 0 -91 60 -191 133 -169 123 -265 187 -281 187 -4 0 -7 -6 -7 -14 0
-17 67 -70 288 -230 89 -65 162 -120 162 -122 0 -10 -75 -113 -82 -114 -4 0
-175 118 -380 262 -458 321 -544 378 -571 378 -19 0 -17 -4 13 -35 18 -19 230
-172 471 -341 l439 -307 -18 -29 c-9 -16 -28 -43 -43 -60 l-25 -31 -195 130
c-205 137 -273 177 -292 170 -20 -7 53 -63 260 -204 109 -74 197 -139 195
-144 -1 -5 -18 -34 -38 -64 l-36 -54 -146 96 c-261 171 -335 213 -349 199 -12
-12 30 -45 242 -184 121 -80 222 -146 224 -148 3 -3 -70 -124 -75 -124 -2 0
-95 57 -207 127 -205 128 -283 170 -295 158 -13 -13 65 -69 272 -199 l206
-129 -16 -25 c-9 -14 -25 -40 -36 -59 -11 -18 -24 -33 -30 -33 -5 0 -92 49
-191 109 -205 122 -278 161 -304 161 -35 -1 56 -67 263 -190 112 -68 204 -127
204 -132 0 -14 -63 -118 -71 -118 -4 0 -207 115 -451 256 -544 314 -558 322
-558 292 0 -21 110 -89 568 -352 226 -131 412 -243 412 -248 0 -6 -14 -35 -31
-65 -23 -40 -35 -53 -47 -48 -9 3 -105 54 -212 113 -219 121 -263 142 -288
142 -37 -1 61 -68 261 -179 112 -62 210 -117 217 -121 9 -6 4 -23 -21 -69 -18
-33 -37 -61 -42 -61 -5 0 -106 52 -225 115 -224 118 -278 142 -290 130 -13
-13 53 -55 258 -164 113 -60 213 -115 223 -123 16 -12 15 -17 -18 -75 l-36
-62 -237 119 c-230 117 -292 143 -292 122 0 -16 77 -62 297 -175 l213 -108
-31 -62 c-17 -34 -33 -64 -35 -66 -2 -3 -107 46 -232 108 -126 61 -246 114
-268 118 l-39 6 19 -22 c11 -11 125 -73 255 -137 130 -63 237 -117 239 -119 7
-6 -58 -136 -65 -132 -19 12 -904 422 -955 443 -60 25 -104 31 -93 14 14 -23
99 -66 557 -279 l477 -223 -25 -56 c-14 -32 -28 -62 -30 -68 -3 -7 -95 29
-241 93 -227 101 -303 127 -303 106 0 -17 185 -107 477 -234 l42 -18 -25 -58
c-14 -32 -29 -62 -34 -67 -5 -5 -102 31 -222 82 -117 49 -228 95 -247 101 -40
13 -71 14 -71 3 0 -14 73 -50 292 -143 117 -49 216 -93 220 -97 8 -9 -41 -132
-53 -132 -5 0 -110 41 -234 91 -215 87 -318 118 -301 90 11 -18 104 -61 318
-147 109 -43 198 -83 198 -88 0 -22 -44 -126 -53 -126 -6 0 -113 39 -237 86
-197 76 -310 109 -310 91 0 -15 87 -55 291 -133 123 -47 228 -90 233 -94 5 -5
-2 -37 -15 -74 -18 -50 -28 -65 -39 -60 -148 58 -1011 365 -1040 370 -61 10
-50 -13 23 -45 34 -16 276 -107 539 -202 l476 -173 -23 -64 c-13 -35 -25 -66
-28 -68 -3 -3 -99 27 -213 66 -271 95 -344 114 -344 91 0 -14 127 -66 335
-137 110 -37 202 -69 204 -70 1 -2 -8 -34 -20 -72 l-24 -69 -230 74 c-126 41
-252 77 -280 79 l-50 5 23 -20 c12 -11 135 -57 273 -101 160 -52 249 -86 246
-93 -2 -7 -12 -38 -21 -69 -9 -32 -20 -58 -23 -58 -4 0 -111 31 -237 70 -246
74 -316 90 -316 72 0 -20 51 -39 291 -113 129 -39 238 -75 242 -79 8 -7 -19
-115 -32 -132 -3 -4 -107 22 -231 58 -230 66 -330 86 -330 66 0 -15 83 -44
328 -114 119 -34 218 -62 219 -62 2 -2 -36 -138 -39 -141 -2 -1 -226 58 -498
131 -454 123 -644 164 -627 137 13 -21 89 -43 1031 -295 l78 -21 -6 -36 c-3
-20 -10 -52 -16 -72 l-10 -36 -233 57 c-244 61 -337 78 -337 63 0 -19 78 -45
313 -104 133 -33 243 -61 244 -62 1 -2 -6 -34 -16 -72 -15 -59 -21 -69 -37
-67 -10 2 -113 25 -229 52 -230 53 -325 68 -325 52 0 -18 78 -42 318 -97 129
-30 237 -57 240 -59 5 -5 -17 -116 -27 -132 -4 -7 -77 4 -229 37 -246 52 -342
66 -342 51 0 -18 78 -41 316 -92 131 -28 240 -53 242 -55 5 -4 -19 -129 -27
-137 -3 -3 -107 14 -230 38 -271 53 -345 62 -339 44 7 -21 64 -37 316 -86 130
-25 238 -47 240 -49 2 -2 -1 -36 -8 -75 -12 -70 -13 -71 -39 -66 -151 31
-1009 176 -1051 178 -64 3 -77 -11 -26 -28 19 -7 271 -54 558 -105 288 -50
526 -94 529 -98 11 -11 -13 -141 -27 -141 -6 0 -110 16 -230 35 -215 34 -334
44 -334 26 0 -14 75 -31 323 -70 130 -21 239 -40 241 -42 2 -2 -1 -34 -6 -71
-9 -61 -13 -68 -33 -68 -12 0 -119 13 -236 30 -220 31 -319 37 -319 20 0 -15
64 -29 319 -65 134 -19 246 -37 248 -38 4 -5 -14 -137 -19 -143 -2 -2 -111 10
-242 26 -247 31 -336 36 -336 21 0 -18 70 -32 318 -63 l255 -32 -6 -69 c-3
-38 -8 -72 -11 -74 -3 -3 -123 7 -266 21 -147 15 -276 24 -294 20 l-31 -7 34
-14 c19 -8 141 -26 270 -39 319 -34 285 -21 277 -106 -4 -40 -8 -73 -9 -73 -1
-1 -220 17 -487 41 -480 43 -670 53 -670 35 0 -18 104 -31 617 -76 285 -25
523 -47 528 -49 6 -2 9 -33 7 -75 l-4 -71 -31 0 c-18 0 -115 7 -217 15 -217
17 -327 19 -335 6 -11 -18 71 -31 300 -47 127 -8 241 -17 254 -20 23 -5 24 -7
18 -76 -3 -39 -7 -71 -9 -73 -2 -1 -113 4 -248 12 -235 13 -330 11 -330 -6 0
-5 12 -11 28 -15 24 -5 459 -35 525 -36 26 0 27 -2 27 -55 0 -52 -2 -55 -27
-60 -16 -4 -37 -9 -48 -12 -11 -3 -129 -8 -263 -12 -246 -6 -299 -16 -185 -36
54 -9 -2 -19 -1022 -178 -594 -92 -1099 -168 -1121 -167 -25 0 -46 -6 -54 -15
-18 -21 -4 -62 22 -68 13 -3 508 -81 1101 -173 595 -93 1070 -172 1060 -175
-10 -4 -27 -10 -38 -14 -48 -15 20 -25 185 -25 113 -1 212 -7 280 -18 l105
-17 3 -51 3 -51 -158 -7 c-197 -9 -385 -24 -407 -32 -67 -26 93 -31 388 -14
93 6 171 9 173 7 9 -9 15 -147 7 -147 -101 -3 -527 -42 -549 -50 l-30 -12 25
-10 c17 -6 112 -4 292 8 147 10 270 16 272 13 2 -2 6 -36 7 -74 l3 -70 -535
-46 c-519 -46 -626 -60 -614 -79 11 -17 116 -11 639 35 280 25 511 44 512 42
6 -6 17 -147 11 -147 -20 0 -487 -52 -507 -56 -49 -11 -60 -15 -60 -25 0 -15
142 -9 364 15 237 25 219 31 220 -68 l1 -61 -145 -17 c-221 -26 -367 -47 -397
-59 -26 -10 -26 -11 -10 -21 11 -5 42 -7 70 -4 29 3 150 17 270 32 121 14 221
23 224 21 5 -6 25 -139 21 -142 -2 -1 -118 -18 -259 -38 -256 -36 -309 -48
-309 -67 0 -17 73 -11 330 25 134 19 245 33 246 32 3 -3 22 -142 20 -144 -1
-1 -114 -20 -252 -42 -248 -40 -314 -55 -314 -72 0 -17 94 -9 314 26 120 19
228 35 241 35 20 0 23 -8 33 -67 6 -37 9 -69 7 -71 -2 -3 -243 -46 -534 -98
-292 -51 -547 -101 -568 -111 l-38 -17 52 -4 c35 -2 230 28 566 87 283 50 518
91 524 91 14 0 38 -129 27 -140 -5 -4 -108 -27 -229 -50 -233 -45 -310 -64
-320 -80 -13 -21 99 -9 325 35 129 25 237 42 240 38 8 -9 33 -134 28 -137 -2
-1 -112 -26 -245 -54 -133 -28 -259 -59 -280 -69 l-38 -17 44 -4 c26 -2 134
16 270 44 124 26 235 48 245 48 16 1 22 -11 34 -67 8 -37 13 -69 11 -71 -2 -2
-112 -28 -245 -59 -132 -30 -258 -63 -280 -73 l-39 -18 46 -4 c31 -2 129 16
289 53 134 31 244 54 245 53 8 -10 31 -139 25 -143 -3 -2 -116 -31 -249 -65
-134 -33 -258 -68 -275 -78 l-31 -17 45 -3 c29 -1 129 18 285 57 132 33 241
58 243 57 1 -2 11 -33 21 -70 13 -48 15 -69 7 -71 -6 -2 -240 -66 -521 -141
-459 -122 -585 -161 -585 -181 0 -18 164 20 619 142 277 74 506 134 508 131 2
-2 12 -33 23 -70 14 -50 16 -68 7 -71 -7 -2 -109 -32 -227 -65 -223 -64 -310
-95 -310 -113 0 -17 89 1 324 69 126 36 232 61 236 57 11 -11 42 -124 36 -130
-2 -3 -105 -36 -228 -73 -230 -71 -324 -108 -311 -121 13 -13 130 16 353 85
l205 63 24 -69 c12 -38 21 -71 20 -72 -2 -2 -98 -34 -214 -71 -216 -69 -325
-111 -325 -126 0 -24 51 -12 339 82 117 39 214 69 216 67 11 -14 43 -133 38
-138 -5 -4 -98 -37 -208 -75 -214 -73 -325 -118 -325 -133 0 -19 108 9 322 83
121 42 226 74 232 72 12 -5 53 -124 45 -131 -2 -2 -221 -83 -487 -180 -488
-177 -572 -211 -580 -235 -8 -25 74 2 581 186 280 102 510 183 512 181 9 -11
47 -129 42 -134 -3 -3 -101 -43 -219 -88 -217 -84 -292 -118 -303 -136 -18
-29 62 -6 315 90 113 44 211 80 219 82 9 2 24 -21 41 -64 l28 -67 -181 -72
c-222 -88 -347 -146 -347 -161 0 -21 70 1 307 95 l238 95 28 -66 c15 -36 24
-68 20 -72 -4 -4 -87 -40 -183 -80 -198 -83 -325 -144 -336 -161 -17 -27 86 5
302 96 124 53 230 97 235 98 6 1 23 -28 39 -65 l28 -66 -216 -97 c-230 -102
-302 -139 -302 -156 0 -20 64 2 270 93 113 50 219 97 237 104 l31 14 31 -67
c17 -36 30 -67 29 -68 -2 -1 -199 -94 -438 -205 -568 -264 -615 -288 -598
-306 15 -14 95 20 562 238 259 121 476 222 483 225 7 3 25 -22 45 -63 27 -55
30 -68 18 -72 -31 -11 -417 -205 -457 -230 -24 -15 -43 -31 -43 -36 0 -20 76
10 293 115 126 60 233 108 238 107 8 -3 70 -120 66 -124 -1 -1 -103 -54 -227
-118 -124 -64 -238 -127 -255 -141 l-30 -24 27 -1 c15 0 135 54 268 120 134
67 244 120 245 118 1 -2 17 -31 34 -65 l31 -62 -108 -57 c-328 -175 -392 -213
-392 -234 0 -22 102 25 395 183 66 35 123 62 128 60 4 -2 21 -31 37 -63 l30
-60 -22 -14 c-13 -7 -106 -60 -208 -116 -202 -112 -259 -149 -260 -167 0 -22
79 14 300 136 l215 119 36 -61 c20 -34 33 -65 30 -69 -3 -3 -195 -115 -426
-248 -439 -253 -555 -324 -555 -340 0 -33 40 -12 578 298 l433 251 25 -40 c30
-48 49 -88 43 -92 -2 -2 -98 -61 -214 -130 -220 -132 -275 -170 -263 -183 14
-13 83 22 299 151 117 71 214 124 216 119 2 -5 19 -34 38 -64 18 -30 33 -55
32 -56 -1 -1 -96 -61 -212 -133 -194 -122 -276 -183 -264 -195 10 -10 108 43
292 159 104 64 195 118 203 119 14 1 92 -110 83 -117 -2 -2 -94 -61 -204 -132
-203 -132 -276 -187 -263 -201 14 -13 83 28 475 283 20 14 24 11 64 -48 32
-48 39 -63 28 -70 -46 -26 -418 -284 -438 -304 -28 -27 -24 -40 9 -30 12 4
122 74 245 155 l222 148 43 -60 c23 -33 40 -61 38 -62 -1 -2 -197 -139 -435
-306 -237 -166 -449 -318 -470 -338 -44 -40 -32 -52 24 -24 31 16 697 477 864
598 l47 34 37 -52 c21 -29 38 -57 39 -64 1 -6 -87 -75 -194 -154 -209 -152
-250 -186 -250 -207 0 -24 76 23 284 174 183 133 199 143 212 126 7 -10 27
-37 44 -60 l31 -42 -198 -149 c-194 -146 -262 -206 -251 -218 12 -11 88 38
277 180 107 80 197 146 200 146 3 -1 25 -26 47 -57 l42 -57 -82 -64 c-325
-253 -392 -312 -353 -312 22 0 98 53 250 171 78 62 159 125 179 141 l36 28 46
-58 45 -59 -194 -157 c-198 -160 -257 -217 -235 -224 17 -6 100 54 287 206 89
73 166 132 171 132 7 0 69 -70 85 -97 5 -7 -127 -124 -365 -324 -354 -296
-498 -424 -498 -441 0 -35 79 25 525 400 l379 319 48 -56 c37 -43 45 -58 35
-67 -7 -7 -88 -78 -182 -158 -155 -134 -242 -222 -231 -233 13 -13 77 36 293
224 83 73 156 133 161 133 6 0 31 -23 56 -51 l45 -50 -193 -175 c-180 -162
-235 -219 -223 -231 12 -11 72 34 211 159 217 194 203 192 140 22 -54 -146
-54 -147 -134 -230 -74 -77 -92 -104 -72 -104 11 0 52 28 85 58 15 14 27 23
27 20 0 -3 -54 -155 -120 -338 -66 -183 -120 -341 -120 -350 0 -21 20 -40 42
-40 10 0 125 39 255 86 131 47 306 109 388 139 83 29 159 57 170 61 11 4 -9
-23 -44 -62 -70 -76 -117 -141 -108 -150 12 -12 49 20 158 135 l114 120 110
40 c96 35 112 39 124 26 13 -13 12 -18 -10 -42 -243 -264 -359 -406 -346 -419
13 -13 68 40 228 218 94 103 175 188 180 188 6 0 32 -21 59 -46 l49 -46 -151
-171 c-149 -171 -226 -272 -215 -283 12 -13 75 48 215 209 81 93 156 180 167
193 l20 24 56 -48 56 -48 -338 -404 c-326 -389 -389 -468 -389 -490 0 -42 52
15 428 463 208 247 338 394 345 390 27 -16 97 -78 97 -86 0 -4 -69 -93 -154
-198 -154 -191 -196 -252 -183 -265 12 -12 70 51 229 248 l151 187 26 -19 c14
-10 41 -31 58 -47 l33 -28 -146 -185 c-148 -189 -198 -262 -192 -280 7 -22 54
29 211 229 l163 208 57 -41 c31 -22 56 -44 57 -47 0 -3 -66 -93 -146 -200
-142 -189 -191 -265 -180 -277 12 -11 71 56 218 250 l150 197 42 -30 c22 -16
49 -36 59 -43 17 -13 8 -28 -122 -208 -148 -204 -191 -272 -177 -285 12 -12
71 59 218 263 73 101 138 182 144 180 7 -3 35 -21 63 -41 l51 -37 -34 -47
c-121 -167 -582 -833 -598 -864 -28 -56 -17 -68 25 -25 19 21 171 232 338 470
166 238 304 435 305 437 2 2 30 -16 63 -39 37 -26 58 -47 53 -54 -4 -6 -71
-106 -149 -223 -139 -208 -162 -248 -148 -261 12 -12 71 65 207 268 72 107
132 197 134 198 1 2 30 -15 63 -38 39 -26 59 -45 54 -53 -4 -7 -59 -93 -124
-192 -119 -185 -175 -283 -165 -293 13 -12 57 44 193 251 79 119 145 217 148
217 3 0 30 -17 61 -37 37 -25 53 -41 49 -51 -3 -9 -57 -97 -119 -196 -122
-195 -156 -256 -156 -281 0 -46 43 12 204 270 65 105 119 191 120 192 2 2 106
-60 124 -73 2 -1 -55 -101 -127 -221 -130 -217 -160 -278 -146 -291 12 -12 51
45 186 270 l131 216 61 -35 c34 -20 63 -37 65 -38 1 -1 -113 -202 -254 -446
-291 -505 -306 -533 -302 -562 3 -19 6 -17 34 18 17 22 152 248 299 502 l267
463 46 -27 c26 -15 55 -32 64 -38 15 -10 4 -35 -107 -236 -114 -204 -147 -280
-132 -296 9 -8 81 110 192 310 53 97 101 179 105 182 5 3 107 -45 128 -61 2
-1 -35 -73 -81 -161 -128 -240 -167 -320 -167 -345 1 -22 2 -22 28 7 15 17 80
130 145 252 l119 223 61 -31 c34 -17 64 -33 66 -35 2 -2 -51 -112 -118 -244
-116 -231 -148 -318 -102 -276 11 10 75 124 142 254 67 131 123 238 125 240 1
2 31 -12 67 -30 l66 -33 -110 -225 c-110 -226 -138 -294 -125 -307 11 -12 35
28 156 270 66 130 122 237 125 237 8 0 125 -60 125 -64 0 -2 -99 -216 -220
-475 -217 -466 -259 -565 -245 -579 17 -17 54 56 315 618 106 228 194 416 195
418 1 1 32 -12 69 -28 41 -19 66 -36 63 -43 -3 -7 -45 -102 -95 -212 -112
-249 -135 -315 -112 -315 16 0 58 81 156 302 52 117 96 214 98 215 2 2 33 -10
69 -27 l66 -30 -39 -92 c-21 -51 -60 -145 -88 -208 -60 -140 -85 -214 -80
-237 7 -32 53 55 154 292 79 185 100 225 113 220 9 -4 40 -16 69 -28 29 -11
51 -25 49 -31 -3 -6 -46 -113 -96 -237 -89 -220 -114 -299 -94 -299 16 0 57
85 148 310 48 118 88 216 88 217 2 1 129 -48 135 -52 1 -1 -38 -108 -87 -237
-88 -229 -117 -329 -92 -314 20 13 59 99 141 313 43 113 81 208 84 211 6 5
106 -26 128 -39 6 -4 -55 -185 -163 -480 -160 -439 -215 -606 -205 -617 10
-10 30 14 51 62 12 28 100 265 195 526 95 261 175 478 179 482 3 3 36 -5 73
-19 l67 -25 -16 -41 c-83 -228 -154 -455 -151 -486 l3 -36 26 50 c14 28 59
147 99 265 40 118 77 219 81 224 7 8 139 -30 139 -40 0 -3 -34 -109 -75 -236
-76 -231 -97 -318 -78 -318 17 0 58 103 129 325 37 116 68 211 69 213 2 2 35
-6 74 -18 45 -13 69 -25 66 -33 -3 -7 -34 -109 -71 -227 -66 -218 -93 -356
-61 -315 15 19 76 197 147 433 17 56 35 102 41 102 25 0 129 -36 129 -45 0 -5
-29 -111 -64 -235 -71 -248 -86 -325 -66 -318 19 6 43 74 114 320 36 121 66
221 68 223 4 5 125 -28 133 -36 3 -3 -56 -235 -131 -514 -123 -461 -158 -615
-141 -615 20 0 60 129 182 586 75 280 138 514 140 521 3 8 20 7 67 -4 35 -9
67 -19 71 -23 4 -4 -20 -117 -53 -251 -38 -153 -60 -259 -58 -284 l4 -40 21
45 c12 25 47 149 79 275 31 127 60 233 63 237 5 6 128 -19 139 -27 2 -2 -22
-112 -53 -245 -37 -160 -55 -258 -53 -289 l4 -46 18 40 c10 22 43 148 74 280
30 132 57 242 59 244 5 6 143 -21 143 -28 0 -4 -23 -114 -50 -245 -32 -148
-50 -257 -48 -285 l4 -46 18 40 c10 22 41 148 69 280 28 132 52 242 54 244 6
8 143 -22 143 -32 0 -5 -20 -115 -46 -243 -27 -141 -44 -253 -42 -281 l4 -48
17 38 c10 20 38 142 63 270 25 127 47 239 50 248 4 15 11 15 71 2 37 -7 69
-15 71 -18 3 -2 -37 -239 -87 -525 -60 -339 -91 -539 -89 -573 l4 -52 17 38
c10 21 60 277 112 568 51 292 96 533 98 535 2 3 36 -1 75 -7 65 -11 71 -14 67
-33 -3 -12 -21 -122 -40 -246 -36 -231 -42 -310 -25 -310 16 0 37 94 75 335
20 126 38 231 39 233 4 3 138 -18 144 -23 1 -1 -11 -94 -28 -207 -37 -257 -46
-363 -32 -372 18 -11 32 52 70 317 l37 258 65 -7 c36 -3 69 -10 74 -14 5 -5
-3 -101 -18 -227 -38 -314 -37 -308 -27 -334 l9 -24 12 30 c6 17 27 146 45
288 18 142 35 260 37 262 3 3 140 -13 143 -17 1 -2 -8 -100 -21 -218 -25 -230
-30 -360 -14 -360 5 0 12 12 16 28 3 15 8 34 10 42 2 8 15 123 29 254 14 132
28 242 30 246 4 7 133 -4 141 -12 2 -3 -16 -236 -41 -519 -46 -527 -52 -624
-36 -633 21 -13 33 83 77 583 25 289 47 536 50 548 4 21 8 22 67 17 34 -3 67
-7 72 -9 7 -2 5 -86 -8 -256 -12 -166 -15 -268 -9 -294 l9 -40 12 30 c9 22 50
465 51 548 0 4 34 7 76 7 l77 0 -7 -82 c-13 -176 -19 -508 -9 -508 6 0 14 8
18 18 8 22 22 197 31 400 l7 163 56 -3 56 -3 13 -70 c9 -45 13 -142 12 -274 0
-112 2 -212 5 -222 12 -36 24 -19 31 41 4 34 8 59 10 58 8 -8 334 -2133 334
-2176 0 -72 37 -105 72 -64 10 12 67 353 182 1097 92 594 170 1087 173 1095 5
12 7 10 10 -5 10 -55 14 -65 23 -65 6 0 10 72 11 188 0 123 6 223 17 292 l17
105 53 3 c44 3 52 0 52 -15 1 -60 31 -513 36 -536 4 -15 10 -27 15 -27 18 0
20 76 10 271 -6 112 -12 229 -13 259 l-3 55 75 0 75 0 17 -242 c18 -255 27
-323 43 -326 17 -3 17 100 0 341 -9 129 -15 235 -13 236 1 2 36 6 76 10 59 5
72 4 72 -8 0 -52 92 -1051 101 -1093 6 -29 15 -53 20 -53 18 0 8 201 -35 675
-24 264 -41 482 -40 484 4 5 138 19 142 15 4 -3 9 -43 41 -341 11 -100 27
-196 34 -215 l14 -33 8 28 c6 24 -3 139 -42 509 l-6 57 34 5 c94 14 110 14
114 3 2 -7 18 -123 35 -259 30 -242 43 -308 61 -308 15 0 10 97 -20 340 -17
129 -27 238 -23 241 8 8 142 23 142 16 0 -2 16 -114 35 -247 37 -258 50 -320
65 -320 18 0 11 100 -22 337 -18 128 -29 235 -26 238 12 13 131 26 138 16 3
-6 19 -93 34 -193 35 -232 54 -326 71 -358 26 -47 17 93 -20 326 -19 121 -35
224 -35 231 0 10 137 40 144 32 1 -2 44 -242 95 -533 92 -523 110 -606 127
-596 18 10 2 127 -85 625 -50 280 -88 511 -86 513 4 4 139 31 141 28 1 0 22
-110 48 -243 50 -259 65 -314 86 -321 10 -4 11 9 6 59 -6 51 -70 402 -91 496
-5 19 1 22 65 34 39 7 72 10 75 7 3 -2 28 -112 56 -243 51 -241 73 -315 91
-315 16 0 3 89 -48 330 -25 118 -46 222 -47 230 -1 10 18 19 68 31 39 9 71 16
72 15 0 0 27 -111 58 -246 59 -252 80 -320 97 -320 21 0 4 89 -97 522 l-13 56
71 16 c38 9 71 15 73 13 1 -1 30 -111 63 -244 59 -235 85 -313 104 -313 15 0
-2 95 -63 338 -39 159 -54 235 -47 237 49 15 130 36 132 33 1 -2 65 -235 140
-518 129 -483 165 -600 181 -600 21 0 -18 178 -134 610 -72 267 -132 494 -134
504 -2 16 9 22 65 38 38 11 70 18 71 16 1 -2 31 -102 65 -223 70 -244 98 -325
112 -325 21 0 5 82 -61 315 -39 136 -69 249 -68 250 2 1 33 11 70 22 l68 21
40 -132 c97 -313 123 -387 142 -409 l19 -22 -6 53 c-3 29 -38 157 -76 284 -39
126 -67 234 -62 238 8 8 108 40 124 40 5 0 40 -99 79 -220 95 -294 130 -371
130 -285 0 30 -40 165 -140 467 l-18 57 69 23 c37 12 70 20 72 17 2 -2 35 -94
72 -204 75 -220 122 -335 138 -335 19 0 -3 85 -83 319 -44 129 -77 238 -72
243 8 8 124 50 128 46 1 -2 84 -228 184 -503 186 -510 212 -575 231 -575 24 0
-7 100 -186 590 -101 277 -183 506 -181 507 1 1 32 14 68 27 l67 25 41 -107
c101 -265 152 -389 170 -412 l20 -25 0 34 c0 29 -34 124 -165 467 l-23 62 66
25 c37 13 70 22 73 18 4 -3 44 -98 89 -211 88 -219 123 -294 141 -306 27 -17
-3 86 -91 306 -54 135 -89 235 -84 240 17 16 117 51 125 43 5 -5 49 -104 98
-220 92 -218 129 -293 145 -293 21 0 -8 90 -98 301 -53 125 -96 231 -96 236 0
13 122 65 131 56 4 -5 44 -91 89 -193 95 -215 148 -320 163 -320 21 0 -5 76
-106 304 l-105 238 65 29 c36 16 66 29 68 29 1 0 103 -215 225 -477 214 -459
257 -544 280 -558 16 -10 12 30 -9 82 -10 26 -116 257 -235 512 -119 255 -215
465 -214 466 11 9 129 57 132 54 3 -2 54 -105 115 -229 61 -124 123 -238 137
-255 l25 -30 -5 39 c-3 22 -55 141 -116 265 -60 125 -110 229 -110 233 0 7
112 68 124 68 2 0 54 -97 115 -216 117 -225 157 -294 173 -294 21 0 -5 62
-119 288 -65 128 -119 236 -120 240 -3 8 126 77 131 71 1 -2 55 -103 119 -224
118 -221 159 -286 173 -273 12 12 -20 81 -140 308 l-114 215 56 32 c32 18 62
33 68 33 5 0 64 -97 130 -216 115 -209 183 -309 184 -272 0 28 -32 94 -153
310 l-115 207 65 37 c35 20 66 34 67 32 1 -1 117 -201 256 -443 267 -464 317
-545 338 -545 29 0 6 44 -321 610 l-234 405 61 36 c33 21 64 36 67 33 3 -2 61
-95 128 -208 124 -207 190 -298 191 -263 0 26 -44 109 -169 317 l-110 184 60
38 c33 21 61 38 63 38 2 0 61 -93 132 -206 133 -212 186 -285 200 -271 12 12
-24 77 -161 296 -69 111 -125 203 -125 206 0 7 107 75 117 75 5 0 68 -91 140
-202 141 -218 186 -278 199 -265 13 12 -31 91 -168 301 -71 109 -125 202 -120
205 84 56 114 72 121 65 4 -5 69 -99 144 -209 122 -179 179 -255 192 -255 22
0 -17 71 -145 264 -82 125 -150 230 -150 235 0 14 112 83 120 74 5 -4 142
-199 305 -433 291 -418 375 -526 375 -486 0 30 -33 80 -345 527 -162 231 -295
424 -295 428 0 9 100 81 112 81 3 0 69 -87 147 -192 144 -199 192 -258 210
-258 6 0 11 2 11 5 0 19 -56 105 -184 280 l-145 200 22 17 c46 37 97 71 101
67 1 -2 70 -94 153 -204 153 -202 197 -254 210 -242 13 14 -28 78 -178 276
-84 111 -150 204 -147 207 3 2 29 23 59 45 42 31 55 37 65 27 6 -7 74 -94 152
-193 142 -182 206 -254 218 -242 12 11 -43 92 -191 281 -80 102 -145 189 -145
194 0 9 68 68 97 85 8 5 65 -58 160 -175 81 -101 165 -200 186 -220 35 -36 57
-47 57 -30 0 15 -72 113 -209 282 -77 96 -141 177 -141 181 0 10 100 91 109
87 4 -2 151 -174 326 -383 175 -209 341 -404 369 -432 59 -62 86 -71 60 -20
-21 41 -27 49 -402 495 -172 205 -312 377 -310 381 3 9 97 91 103 91 2 0 75
-82 163 -183 169 -194 233 -258 240 -238 6 19 -39 77 -209 274 l-157 181 51
45 c28 25 54 46 58 46 4 0 58 -56 119 -125 133 -149 270 -290 282 -290 18 0 6
31 -31 77 -21 26 -97 113 -169 193 -72 80 -129 146 -128 148 2 1 67 -21 146
-49 l143 -51 87 -89 c48 -49 96 -89 105 -89 16 0 16 2 0 28 -10 15 -33 46 -52
70 l-34 42 123 -44 c68 -24 217 -78 332 -120 196 -71 211 -75 233 -61 13 9 23
21 23 29 0 7 -54 163 -121 347 -66 184 -133 372 -150 418 l-29 83 99 -90 c110
-100 145 -126 162 -120 17 6 -50 80 -180 200 -109 101 -118 112 -143 180 -33
87 -34 99 -8 123 24 21 8 33 200 -141 154 -139 246 -214 261 -214 38 0 -31 72
-279 294 l-132 119 47 51 c27 28 51 51 54 51 4 0 85 -68 182 -152 186 -161
263 -221 273 -210 14 14 -35 64 -225 231 l-199 173 46 57 c38 47 48 54 61 43
9 -6 180 -150 381 -318 418 -350 462 -385 491 -394 75 -24 15 33 -436 411
-228 192 -415 351 -415 354 0 3 22 28 48 57 l47 52 165 -135 c222 -182 300
-235 300 -205 0 14 -116 118 -282 251 -172 138 -165 125 -101 198 l38 43 198
-154 c200 -156 260 -197 273 -184 13 12 -45 64 -243 219 -106 83 -193 155
-193 160 0 12 73 108 82 108 4 0 98 -67 208 -150 199 -149 253 -184 271 -178
21 7 -31 53 -228 203 -114 87 -211 161 -216 165 -7 6 66 113 81 117 4 2 97
-63 207 -143 183 -134 272 -190 284 -178 11 11 -74 81 -257 215 -109 78 -199
144 -201 146 -8 6 77 118 87 116 6 -2 200 -135 432 -298 431 -303 513 -356
526 -342 16 15 -66 79 -401 313 -187 130 -384 268 -438 306 l-97 69 40 60 c26
37 45 57 53 52 7 -3 98 -64 202 -133 194 -130 272 -176 283 -166 12 13 -52 63
-256 203 l-213 145 17 26 c10 15 27 42 38 59 12 18 24 33 28 33 4 0 94 -57
200 -126 205 -134 282 -178 301 -171 22 7 -50 63 -250 192 -109 71 -204 134
-211 141 -12 10 -7 22 25 72 l38 61 222 -139 c222 -137 278 -167 288 -150 8
13 -50 56 -207 155 -79 49 -173 108 -210 132 l-68 43 37 57 c20 32 37 60 39
62 2 2 90 -48 196 -111 218 -131 304 -175 315 -164 13 13 -48 57 -254 181
-109 65 -206 123 -215 130 -15 10 -13 16 18 65 18 30 35 59 37 64 2 5 212
-112 467 -259 467 -270 515 -295 547 -295 42 1 -78 79 -521 334 l-466 269 32
56 c17 31 34 59 38 64 3 4 85 -36 180 -89 269 -148 350 -186 350 -164 0 17
-67 60 -275 175 -116 65 -214 121 -219 125 -6 6 36 98 60 129 2 1 101 -49 221
-113 225 -119 298 -151 308 -136 9 14 -65 59 -293 180 -117 62 -211 116 -210
119 2 3 17 32 33 64 16 31 33 57 38 57 4 0 114 -54 243 -120 135 -69 246 -120
262 -120 l27 1 -33 28 c-18 16 -133 79 -255 141 -122 62 -223 114 -225 115 -3
3 55 124 63 133 1 1 101 -46 221 -105 225 -111 299 -142 311 -129 14 14 -42
47 -275 161 -129 63 -232 118 -230 123 1 4 14 33 27 65 14 31 28 57 33 57 5 0
216 -97 471 -216 510 -239 615 -282 592 -244 -15 24 -102 68 -526 265 -244
114 -461 216 -481 226 l-37 19 25 57 c14 32 29 61 33 66 4 4 99 -34 212 -84
275 -123 361 -152 328 -113 -17 21 -108 66 -331 165 -101 44 -184 82 -186 84
-1 1 11 32 27 68 28 62 32 66 53 58 13 -5 104 -44 203 -86 201 -86 279 -115
308 -115 17 0 18 2 6 16 -18 22 -57 41 -300 144 -117 50 -214 92 -216 94 -9 8
51 137 61 133 6 -3 113 -46 238 -96 220 -88 320 -118 304 -92 -12 19 -113 66
-328 152 -111 44 -204 82 -205 82 -1 2 48 130 53 135 1 2 98 -33 216 -78 281
-109 338 -125 338 -101 0 15 -104 61 -327 146 -119 45 -203 83 -203 90 0 7 10
39 22 70 15 41 26 55 37 52 9 -2 228 -81 486 -175 491 -179 583 -208 598 -193
16 16 -65 49 -578 236 -428 156 -500 185 -497 201 2 10 13 42 23 70 l20 52
248 -85 c167 -56 260 -83 283 -81 l33 3 -45 24 c-25 13 -145 59 -268 102 -123
42 -226 79 -229 82 -6 6 36 137 44 137 3 0 109 -34 237 -75 127 -41 254 -77
281 -81 l50 -5 -22 19 c-12 11 -136 57 -275 103 -139 46 -255 85 -257 86 -2 1
6 34 18 72 14 45 26 69 34 66 6 -2 110 -34 229 -70 223 -68 315 -89 324 -73 9
14 -66 42 -310 117 -126 39 -231 73 -234 76 -8 8 31 135 42 135 6 0 113 -29
238 -65 250 -71 342 -89 320 -63 -18 22 -68 39 -320 112 -122 35 -225 65 -227
68 -6 5 25 120 35 131 4 4 236 -53 516 -128 280 -75 534 -139 564 -143 50 -5
54 -4 42 11 -19 23 -80 41 -592 177 -250 67 -469 126 -486 131 l-32 10 16 62
c8 34 18 66 22 70 4 4 116 -20 250 -53 243 -60 334 -74 311 -46 -14 16 -98 41
-346 102 -104 26 -193 50 -197 53 -6 5 18 130 27 139 1 2 101 -20 221 -48 226
-53 363 -73 350 -52 -10 17 -104 43 -341 97 -115 26 -212 49 -214 51 -7 6 22
144 30 144 4 0 114 -23 245 -50 154 -33 256 -50 288 -48 l51 3 -38 17 c-21 10
-147 41 -280 69 -133 28 -246 55 -251 59 -11 11 14 140 28 140 5 0 115 -20
244 -45 147 -29 253 -45 286 -43 l51 4 -36 16 c-19 9 -143 37 -275 63 -131 25
-246 48 -255 51 -14 4 -14 12 -4 70 7 36 16 68 19 71 3 4 241 -35 528 -86 498
-87 618 -103 618 -81 0 5 -19 14 -42 20 -24 6 -50 13 -58 15 -8 3 -244 45
-524 94 -280 50 -510 92 -513 94 -2 2 2 36 8 75 11 65 14 71 33 67 12 -3 109
-19 216 -36 223 -35 350 -47 350 -32 0 17 -101 40 -345 78 -126 20 -231 38
-233 39 -3 4 17 139 22 143 1 2 112 -13 247 -32 252 -36 324 -42 333 -26 11
17 -58 32 -317 69 l-258 37 7 65 c3 36 10 69 14 74 5 5 101 -3 227 -18 313
-38 310 -37 339 -30 l27 7 -24 13 c-26 14 -86 23 -372 59 -104 13 -190 25
-191 27 -4 3 12 140 16 143 2 1 100 -8 218 -21 225 -24 370 -30 370 -15 0 16
-88 30 -334 57 -132 13 -242 27 -246 29 -7 4 4 133 12 141 3 2 236 -16 517
-41 546 -48 645 -53 639 -33 -8 22 -62 28 -611 76 -295 26 -538 50 -540 52 -3
3 -3 35 0 73 l6 67 48 0 c27 0 144 -7 260 -16 202 -15 279 -13 279 5 0 5 -10
11 -22 15 -17 5 -508 46 -550 46 -5 0 -8 34 -8 76 l0 77 83 -6 c147 -12 484
-20 503 -13 17 7 18 8 2 17 -19 11 -189 25 -415 35 l-163 7 0 57 0 57 78 14
c52 9 140 13 270 11 107 -2 207 0 224 3 45 10 20 26 -51 32 -34 3 -60 8 -58
10 7 7 2179 343 2218 343 33 0 40 4 45 26 4 16 2 31 -7 39 -9 9 -406 74 -1084
179 -588 92 -1081 169 -1095 173 -22 5 -23 7 -5 10 55 10 65 14 60 23 -4 6
-76 10 -173 10 -147 0 -223 7 -389 35 -32 6 -33 7 -33 55 0 45 2 50 23 50 116
1 519 31 542 41 l30 12 -45 9 c-28 5 -137 4 -290 -5 -135 -7 -251 -11 -257 -9
-9 3 -13 27 -13 73 0 63 2 69 23 73 12 3 128 12 257 21 239 15 288 22 292 40
5 17 -89 17 -335 0 -131 -10 -239 -16 -241 -14 -2 2 -6 37 -10 77 -6 67 -5 72
13 72 35 0 1045 90 1076 96 50 9 65 15 65 25 0 18 -189 8 -670 -35 -267 -24
-487 -42 -489 -40 -2 2 -7 35 -10 73 l-7 70 36 5 c19 3 125 15 235 26 212 22
301 36 310 50 13 21 -71 19 -315 -6 -143 -14 -264 -24 -267 -21 -8 9 -21 131
-14 138 3 4 109 19 234 34 255 31 328 44 335 63 6 19 -66 15 -333 -18 -132
-16 -243 -26 -246 -22 -8 8 -23 142 -16 142 50 0 520 76 546 88 l36 17 -58 3
c-31 2 -152 -11 -268 -27 -288 -42 -265 -45 -278 35 -7 37 -10 69 -7 71 3 3
114 23 247 44 256 41 315 54 324 69 12 19 -116 10 -335 -25 -121 -19 -227 -35
-234 -35 -16 0 -42 128 -29 140 4 4 242 48 529 98 515 91 599 109 592 127 -6
19 -118 4 -621 -85 -279 -50 -509 -90 -512 -90 -5 0 -25 97 -25 124 0 22 9 25
223 66 247 47 351 75 341 91 -9 15 -78 6 -347 -47 -126 -24 -230 -44 -231 -44
-5 0 -28 141 -24 145 2 2 109 27 238 54 252 53 311 70 318 90 7 20 -80 7 -340
-49 -122 -26 -226 -46 -229 -44 -8 5 -33 133 -27 139 2 2 109 29 238 59 239
55 320 80 320 98 0 16 -79 3 -325 -53 -121 -27 -227 -52 -236 -54 -12 -4 -19
11 -32 66 -10 40 -16 73 -14 75 1 2 111 30 243 63 252 62 314 82 314 102 0 16
-58 6 -315 -56 -121 -30 -229 -55 -239 -57 -16 -2 -22 8 -37 67 -10 38 -17 70
-16 70 1 1 234 63 517 139 283 76 535 147 560 159 l45 21 -43 4 c-31 2 -180
-33 -555 -134 -282 -75 -518 -137 -526 -138 -15 -1 -55 124 -43 135 4 4 75 26
157 49 291 82 395 118 395 137 0 16 -125 -11 -334 -71 -126 -36 -231 -66 -235
-66 -11 0 -44 131 -35 139 5 4 101 36 214 70 220 66 330 107 330 123 0 18 -88
-2 -310 -69 -118 -37 -226 -67 -239 -67 -20 -1 -26 7 -43 62 -11 35 -18 66
-16 67 2 2 109 38 238 81 222 72 310 106 310 121 0 17 -128 -13 -324 -77 -120
-39 -224 -74 -231 -76 -15 -6 -61 119 -50 135 3 6 20 14 38 20 69 20 395 135
445 157 65 28 70 49 10 39 -24 -4 -148 -43 -276 -87 -129 -44 -237 -76 -241
-72 -9 11 -53 126 -49 129 2 1 224 82 493 180 270 98 511 188 537 201 83 42
70 56 -27 30 -27 -7 -268 -93 -534 -190 -266 -97 -485 -175 -487 -174 -1 2
-14 33 -27 69 l-25 67 216 82 c227 87 306 122 318 141 16 27 -93 -4 -317 -90
-128 -50 -234 -89 -234 -88 -1 1 -13 31 -27 67 -20 51 -23 67 -13 72 7 4 113
49 236 98 123 50 240 101 259 113 l35 22 -33 3 c-24 2 -101 -24 -273 -93 -132
-53 -245 -95 -250 -93 -15 5 -61 120 -52 129 5 4 96 44 203 89 286 121 359
160 294 160 -29 0 -125 -37 -367 -141 l-158 -68 -24 55 c-13 30 -26 62 -27 70
-2 10 64 44 229 118 237 106 313 148 280 154 -26 5 -73 -12 -272 -101 -99 -44
-199 -88 -223 -98 l-42 -18 -30 66 c-17 36 -29 67 -28 69 2 1 221 104 488 228
267 125 503 239 525 254 34 23 37 27 19 30 -33 5 -119 -32 -569 -243 -231
-109 -435 -204 -453 -211 l-32 -14 -32 65 c-18 35 -30 66 -27 69 2 2 94 47
204 100 271 131 344 176 284 176 -21 0 -197 -79 -391 -176 -59 -30 -112 -54
-118 -54 -8 0 -70 110 -70 125 0 3 91 51 203 106 212 107 307 162 307 179 0
20 -56 -3 -294 -122 -131 -66 -239 -118 -241 -116 -1 2 -17 31 -34 65 l-30 61
52 30 c28 16 128 69 220 118 93 49 185 103 205 121 79 69 -19 30 -290 -114
-146 -78 -210 -107 -216 -99 -17 21 -65 116 -61 119 2 2 103 59 224 126 221
123 285 164 272 177 -12 12 -87 -23 -307 -145 -188 -103 -216 -116 -226 -102
-6 9 -22 37 -37 63 l-27 46 33 20 c17 11 221 129 452 262 489 282 530 308 511
327 -11 11 -142 -60 -569 -306 -239 -138 -439 -251 -445 -251 -5 0 -25 27 -45
59 l-35 59 219 133 c232 141 278 173 267 184 -14 15 -60 -8 -282 -141 -125
-74 -229 -134 -230 -132 -30 40 -74 123 -67 127 4 4 101 64 215 136 207 130
281 185 259 192 -18 6 -113 -45 -306 -167 -98 -61 -184 -113 -191 -116 -12 -4
-87 95 -86 113 1 5 95 69 211 143 212 137 292 200 253 200 -24 0 -102 -46
-309 -181 -88 -58 -165 -108 -172 -112 -8 -5 -27 14 -53 54 -23 33 -40 62 -38
63 1 2 100 69 219 149 214 146 259 181 245 194 -12 12 -77 -26 -287 -167
l-206 -139 -43 61 c-23 33 -38 63 -33 67 101 66 874 613 901 636 20 18 33 37
29 42 -15 15 -116 -50 -544 -350 l-422 -296 -36 51 c-20 27 -38 55 -41 62 -2
6 87 78 200 160 200 145 266 200 254 212 -13 12 -88 -35 -286 -178 -189 -137
-205 -147 -218 -131 -7 10 -27 37 -44 60 l-31 42 198 149 c207 156 281 222
250 222 -25 0 -80 -37 -280 -187 -98 -74 -183 -136 -190 -138 -7 -3 -31 21
-53 52 l-41 57 26 21 c14 12 98 77 186 146 172 134 235 189 235 207 0 27 -65
-15 -285 -187 -88 -68 -167 -131 -176 -138 -15 -13 -22 -8 -62 45 l-46 59 172
139 c201 162 267 221 267 241 0 11 -6 10 -32 -3 -39 -20 -62 -38 -270 -206
-87 -71 -161 -128 -166 -128 -7 0 -69 70 -85 97 -5 7 139 134 390 345 383 321
483 410 483 429 0 34 -75 -23 -491 -372 -212 -178 -393 -330 -402 -338 -20
-16 -37 -4 -88 60 l-28 36 193 167 c181 157 245 221 233 233 -12 11 -74 -35
-246 -184 -101 -87 -189 -162 -197 -168 -12 -8 -25 1 -59 37 -25 26 -45 51
-45 57 0 5 88 89 195 185 184 167 224 210 211 224 -12 11 -58 -24 -237 -184
-100 -90 -184 -162 -186 -160 -2 2 19 66 47 142 l50 139 88 90 c105 108 116
121 103 129 -5 4 -36 -15 -68 -40 -32 -26 -64 -51 -70 -57 -10 -7 -10 0 1 29
8 22 66 185 130 363 66 182 116 336 114 350 -2 20 -9 27 -31 29 -24 3 -251
-74 -700 -239 l-77 -29 65 81 c66 80 78 116 27 80 -15 -10 -65 -58 -111 -106
-46 -48 -99 -93 -118 -101 -39 -17 -254 -94 -261 -94 -2 0 25 32 59 71 294
329 321 361 307 375 -13 13 -65 -37 -228 -217 -94 -104 -174 -189 -179 -189
-12 0 -101 80 -101 91 0 6 60 78 133 162 191 219 237 280 224 294 -12 12 -76
-52 -233 -233 l-168 -193 -50 43 c-27 23 -51 47 -53 52 -1 5 151 191 338 414
318 378 399 483 386 496 -13 13 -120 -105 -434 -479 -231 -275 -338 -395 -346
-389 -65 49 -97 77 -97 84 0 5 57 79 128 166 168 208 186 231 206 270 13 26
14 32 3 32 -19 0 -78 -65 -241 -267 l-139 -172 -58 46 c-52 41 -58 48 -46 62
8 9 71 89 140 177 141 182 203 271 194 281 -13 12 -55 -28 -134 -128 -45 -57
-120 -152 -166 -211 l-83 -107 -58 45 c-35 28 -54 49 -50 57 4 7 63 85 130
173 153 203 194 264 194 288 0 34 -61 -34 -222 -247 l-149 -198 -37 29 c-20
16 -47 35 -59 44 -23 15 -23 15 125 219 156 218 191 273 178 286 -12 12 -72
-61 -218 -261 -72 -100 -134 -185 -138 -190 -5 -4 -35 10 -68 34 l-60 42 303
432 c300 428 350 506 342 529 -8 22 -76 -67 -368 -483 -160 -228 -297 -423
-304 -433 -12 -17 -17 -15 -73 24 l-61 42 143 211 c138 205 175 270 162 283
-12 13 -49 -34 -192 -246 -81 -119 -148 -218 -150 -219 -1 -2 -30 15 -63 38
l-61 41 33 52 c19 29 79 122 134 207 112 173 133 211 133 237 -1 33 -72 -59
-205 -264 -70 -109 -129 -200 -131 -202 -1 -2 -30 14 -64 34 -37 23 -59 42
-56 50 2 7 55 94 117 192 122 194 173 287 167 305 -8 22 -67 -58 -194 -260
-71 -113 -131 -208 -134 -213 -3 -4 -30 8 -60 26 -30 19 -59 36 -63 38 -5 1
44 90 108 197 127 212 165 281 165 305 0 48 -51 -23 -215 -297 -55 -93 -104
-168 -109 -168 -16 0 -116 61 -116 72 0 5 111 201 246 435 297 515 338 593
303 581 -24 -8 -72 -85 -333 -538 -142 -245 -260 -448 -264 -451 -4 -3 -35 10
-68 30 l-62 36 119 215 c121 218 157 295 145 307 -13 13 -54 -50 -177 -272
-67 -121 -123 -221 -124 -223 -3 -4 -105 46 -121 59 -8 7 17 64 89 197 114
213 157 304 157 329 -1 38 -67 -59 -159 -234 -52 -98 -105 -197 -118 -220
l-25 -42 -61 30 c-34 17 -63 33 -65 34 -2 2 50 110 116 242 118 235 142 293
122 293 -17 0 -72 -95 -179 -307 l-101 -203 -65 32 c-36 18 -65 36 -65 40 0 5
26 61 59 126 140 280 189 402 163 402 -14 0 -69 -100 -167 -305 -53 -110 -99
-202 -101 -204 -3 -3 -34 9 -69 27 l-65 32 24 52 c13 29 117 253 231 498 186
397 242 538 207 516 -21 -13 -73 -116 -282 -565 -116 -250 -214 -461 -218
-468 -6 -10 -23 -5 -74 20 l-66 32 94 209 c101 226 128 296 122 323 -6 30 -54
-56 -150 -272 -50 -110 -94 -210 -98 -222 l-9 -22 -66 27 c-35 15 -65 32 -65
39 0 6 30 80 66 165 94 218 134 323 134 353 0 63 -39 -9 -160 -295 -45 -107
-85 -198 -89 -203 -8 -8 -131 42 -131 54 0 5 43 116 96 249 67 168 94 250 92
272 l-3 33 -26 -45 c-21 -35 -141 -323 -200 -477 -8 -21 -10 -22 -44 -8 -19 8
-50 21 -69 29 l-34 14 89 233 c86 222 117 331 90 315 -19 -12 -48 -76 -132
-298 -45 -117 -85 -217 -89 -222 -11 -11 -141 36 -136 49 66 176 353 974 362
1010 30 109 8 109 -41 1 -17 -39 -108 -281 -201 -537 l-168 -466 -61 20 c-33
11 -64 23 -68 27 -4 4 30 121 77 261 83 244 97 299 77 299 -16 0 -56 -96 -130
-315 -40 -115 -75 -213 -80 -218 -5 -5 -124 27 -138 38 -2 1 24 82 57 181 80
237 102 318 98 357 l-3 32 -21 -40 c-12 -22 -56 -146 -99 -275 -42 -129 -78
-237 -80 -239 -7 -6 -135 40 -135 49 0 5 27 96 59 202 88 288 105 358 82 358
-15 0 -47 -86 -117 -315 -37 -121 -70 -224 -74 -228 -7 -8 -118 19 -132 32 -5
4 22 110 58 236 65 226 89 345 66 331 -17 -10 -42 -83 -112 -326 -74 -252 -58
-232 -158 -203 -37 10 -52 19 -48 28 3 8 66 243 141 523 101 377 135 522 133
554 l-4 43 -21 -45 c-17 -36 -293 -1040 -293 -1066 0 -7 -57 1 -111 16 l-36
10 57 233 c64 258 78 337 60 337 -18 0 -36 -55 -100 -311 -34 -134 -62 -245
-63 -246 -2 -1 -34 6 -72 16 -59 15 -69 21 -67 37 2 10 25 114 52 229 53 230
68 325 52 325 -18 0 -42 -78 -98 -318 -30 -130 -57 -238 -59 -240 -2 -2 -34 3
-72 10 -64 13 -68 16 -65 38 2 14 24 118 48 232 53 250 63 323 44 316 -21 -7
-37 -64 -91 -318 -28 -129 -52 -236 -54 -238 -4 -5 -129 19 -137 27 -3 3 13
105 37 226 49 252 61 340 47 349 -17 10 -33 -48 -84 -304 -28 -140 -52 -257
-54 -259 -2 -2 -36 1 -75 8 -68 13 -70 14 -65 40 21 104 177 1009 182 1060 5
50 4 63 -6 59 -24 -8 -40 -79 -131 -603 -51 -286 -94 -523 -98 -526 -11 -11
-141 13 -141 27 0 6 16 110 35 230 34 211 44 351 26 340 -15 -10 -32 -87 -70
-329 -21 -130 -40 -239 -42 -241 -2 -2 -34 1 -71 6 -82 12 -79 -13 -38 273 31
214 38 331 20 320 -16 -10 -29 -74 -65 -324 -19 -134 -37 -246 -38 -248 -5 -4
-137 14 -143 19 -2 2 10 111 26 242 33 264 37 340 18 334 -18 -6 -32 -82 -64
-342 l-28 -229 -70 7 c-38 4 -72 8 -74 11 -2 2 8 126 23 274 21 200 25 277 18
293 l-11 23 -11 -28 c-6 -16 -23 -137 -37 -270 -14 -133 -28 -253 -30 -266 -5
-23 -7 -24 -76 -17 -40 4 -73 8 -73 9 -1 1 17 220 41 487 43 478 53 670 35
670 -19 0 -32 -109 -76 -610 -25 -284 -45 -521 -45 -528 0 -18 -139 -17 -146
1 -3 8 2 110 11 227 19 265 20 353 3 348 -20 -7 -28 -59 -46 -323 l-18 -250
-72 1 c-40 1 -74 3 -76 5 -2 2 3 119 11 259 9 163 11 269 5 295 l-9 40 -12
-29 c-9 -23 -40 -436 -41 -544 0 -22 -3 -23 -57 -20 l-58 3 -11 65 c-7 36 -12
167 -13 292 -1 135 -5 229 -11 233 -10 6 -17 -14 -28 -94 -6 -47 -30 92 -175
1025 -92 593 -168 1098 -167 1122 0 24 -5 52 -10 63 -12 21 -52 26 -67 7z m-5
-10460 l-3 -3292 -817 1365 -818 1364 620 3970 c341 2184 636 4069 655 4190
19 121 105 670 190 1220 86 550 159 1014 163 1030 8 35 13 -5032 10 -9847z
m-498 7310 c0 -30 -198 -1300 -204 -1305 -2 -2 -73 -11 -157 -19 -1686 -160
-3266 -745 -4632 -1716 l-169 -120 22 -23 22 -23 126 91 c1151 829 2517 1399
3927 1637 334 56 830 115 847 101 5 -5 -210 -1415 -227 -1488 -4 -15 -13 -23
-27 -23 -38 0 -347 -50 -530 -86 -1230 -241 -2390 -779 -3385 -1571 -167 -132
-355 -295 -469 -406 l-82 -78 -347 256 c-191 141 -353 254 -359 252 -35 -12
-8 -57 234 -388 l250 -342 -73 -76 c-328 -342 -694 -821 -969 -1271 -548 -894
-916 -1901 -1068 -2920 -12 -80 -25 -165 -29 -190 l-6 -45 -745 -116 c-410
-64 -767 -119 -793 -123 l-48 -7 6 63 c45 460 94 787 171 1148 268 1256 788
2434 1536 3483 116 163 120 169 103 188 -10 10 -21 19 -25 19 -6 0 -136 -179
-262 -360 -95 -137 -267 -414 -390 -630 -660 -1155 -1067 -2454 -1188 -3785
-7 -71 -14 -132 -16 -134 -4 -5 -1248 -200 -1252 -196 -10 9 39 577 74 850
187 1471 675 2879 1442 4160 902 1505 2192 2796 3697 3697 1492 893 3121 1397
4880 1511 121 8 115 9 115 -15z m1420 -4 c939 -74 1884 -280 2790 -609 1811
-656 3427 -1806 4660 -3315 1332 -1631 2151 -3609 2364 -5710 9 -80 20 -215
26 -300 5 -85 12 -176 14 -202 2 -40 0 -48 -14 -48 -20 0 -1233 189 -1235 193
-1 1 -12 101 -24 222 -147 1490 -660 2934 -1488 4195 -122 185 -328 476 -345
486 -6 4 -19 -2 -30 -13 -19 -20 -19 -21 78 -154 555 -759 1017 -1664 1313
-2574 220 -672 359 -1355 426 -2084 l7 -73 -28 6 c-16 3 -364 58 -774 121
-410 64 -755 118 -767 120 -17 4 -23 14 -28 53 -3 26 -22 144 -41 262 -181
1112 -598 2163 -1237 3114 -237 352 -553 750 -795 998 l-66 67 34 48 c19 26
131 179 249 338 118 160 217 300 219 313 10 54 -45 21 -373 -219 -182 -133
-336 -243 -343 -246 -7 -3 -45 26 -85 63 -181 173 -452 398 -684 572 -1044
777 -2303 1297 -3568 1473 -88 12 -163 25 -167 28 -8 7 -243 1500 -236 1506 2
2 94 -5 203 -16 1623 -162 3174 -734 4483 -1653 95 -66 181 -127 190 -134 16
-10 22 -9 40 11 l22 23 -143 101 c-974 690 -2071 1195 -3212 1476 -469 116
-947 197 -1425 242 -90 8 -167 18 -171 23 -3 4 -50 291 -104 637 -53 347 -99
643 -102 658 l-6 29 94 -7 c52 -3 177 -13 279 -21z m7532 -2652 c-103 -287
-189 -521 -192 -519 -3 1 -87 88 -186 192 -100 105 -249 253 -331 330 -87 81
-145 143 -139 147 6 3 115 44 241 89 127 46 356 129 510 184 154 56 281 101
282 100 2 -1 -81 -236 -185 -523z m-16612 354 c102 -36 282 -101 400 -144 118
-42 213 -81 210 -85 -3 -4 -145 -148 -316 -320 l-311 -312 -176 490 c-98 270
-177 494 -177 497 0 4 42 -8 93 -26 50 -19 175 -63 277 -100z m9440 -895
c1326 -213 2602 -800 3650 -1679 152 -127 343 -298 348 -311 1 -3 -7 -12 -19
-19 -11 -7 -237 -171 -501 -364 -411 -301 -483 -350 -499 -340 -9 6 -73 58
-141 114 -720 603 -1621 1060 -2528 1281 -124 30 -251 60 -283 67 -32 6 -60
17 -62 23 -5 15 -195 1233 -195 1251 0 8 9 12 23 10 12 -2 105 -17 207 -33z
m-2276 2 c-2 -16 -47 -300 -99 -631 -51 -332 -96 -606 -98 -609 -3 -2 -72 -19
-154 -38 -551 -122 -1042 -299 -1538 -554 -427 -219 -827 -485 -1198 -796 -70
-59 -133 -104 -140 -101 -24 11 -981 722 -984 732 -2 5 51 58 117 118 1006
910 2199 1523 3529 1812 145 32 495 92 538 93 30 1 32 -1 27 -26z m-224 -1423
c0 -20 -60 -403 -63 -406 -1 0 -50 -13 -109 -27 -790 -196 -1576 -587 -2223
-1106 -71 -57 -134 -104 -140 -105 -12 -1 -324 226 -325 236 0 11 163 148 324
272 668 515 1486 905 2316 1105 164 40 198 48 213 50 4 0 7 -8 7 -19z m2705
-25 c476 -115 867 -256 1300 -470 372 -183 674 -367 980 -596 157 -118 375
-297 375 -307 0 -6 -280 -214 -317 -235 -9 -6 -38 12 -91 56 -123 102 -334
256 -507 370 -540 354 -1184 635 -1788 778 -63 16 -99 29 -102 39 -2 8 -15 92
-30 185 -14 94 -28 182 -31 198 -4 20 -2 27 11 27 8 0 99 -20 200 -45z m-2986
-1789 c-114 -729 -209 -1329 -210 -1334 -3 -8 -1928 1403 -1966 1441 -10 9 11
31 95 98 538 431 1136 759 1772 973 163 55 471 144 500 145 13 1 -18 -214
-191 -1323z m3047 1280 c689 -191 1295 -481 1869 -895 143 -103 327 -251 323
-261 -4 -14 -1973 -1450 -1975 -1442 -1 4 -93 588 -203 1297 -110 710 -203
1302 -206 1318 -8 37 0 36 192 -17z m1409 -2556 c-1407 -1407 -2561 -2558
-2563 -2556 -2 2 318 547 710 1211 l713 1207 90 67 c337 249 3601 2631 3605
2631 3 0 -1147 -1152 -2555 -2560z m-5925 -106 c1405 -1406 2543 -2550 2529
-2542 -15 7 -561 330 -1215 716 l-1189 704 -840 1150 c-462 633 -905 1239
-983 1347 -79 108 -183 250 -231 316 -49 66 -139 190 -201 275 -63 85 -174
238 -248 340 -75 102 -146 200 -160 218 -13 17 -23 32 -21 32 2 0 1154 -1150
2559 -2556z m8756 2100 c384 -437 753 -980 1025 -1509 329 -639 566 -1316 703
-2014 37 -186 80 -451 74 -455 -4 -4 -1243 190 -1262 197 -7 3 -20 43 -30 94
-33 165 -114 467 -181 673 -256 779 -656 1497 -1188 2130 l-105 125 22 30 c12
17 179 243 371 503 l348 473 68 -74 c37 -41 107 -118 155 -173z m-10916 -263
c198 -271 362 -497 363 -500 1 -4 -45 -63 -102 -132 -668 -801 -1133 -1747
-1346 -2737 -19 -85 -36 -156 -39 -160 -8 -7 -1259 -202 -1265 -196 -7 7 27
226 66 429 264 1370 892 2626 1837 3673 61 67 114 121 118 120 4 -2 169 -225
368 -497z m9943 -718 c559 -661 991 -1470 1226 -2298 65 -229 121 -469 110
-473 -17 -7 -414 60 -421 71 -3 6 -9 27 -13 46 -3 20 -26 110 -51 200 -210
760 -588 1492 -1091 2109 -47 57 -82 110 -80 117 10 23 229 315 237 315 5 0
42 -39 83 -87z m-9357 -84 c83 -114 115 -165 108 -174 -5 -7 -57 -73 -115
-146 -415 -521 -746 -1132 -957 -1765 -50 -149 -117 -384 -142 -496 -7 -32
-16 -58 -19 -58 -3 -1 -99 -16 -213 -34 -135 -21 -208 -29 -208 -22 0 24 80
349 119 483 106 368 232 687 411 1048 177 357 366 665 599 975 114 152 278
350 291 350 5 0 62 -73 126 -161z m9168 -449 c453 -596 781 -1258 970 -1955
58 -215 57 -205 40 -205 -20 0 -2648 411 -2652 415 -2 1 325 447 725 990 l728
987 43 -49 c24 -26 90 -109 146 -183z m-8236 -827 c371 -507 674 -925 673
-930 0 -10 -2635 -422 -2639 -412 -10 23 121 462 203 684 221 592 557 1178
940 1638 l57 69 46 -64 c26 -35 350 -478 720 -985z m10617 -1633 c2222 -347
4222 -660 4445 -694 223 -35 733 -114 1134 -177 l729 -114 -3286 -3 c-1807 -1
-4765 -1 -6574 0 l-3288 3 1355 813 c1341 804 1355 812 1400 808 25 -3 1863
-289 4085 -636z m-7110 -1086 c-11 -8 -128 -80 -260 -159 -132 -78 -737 -440
-1344 -804 l-1103 -661 -4037 631 c-2220 347 -4207 657 -4416 689 -1391 217
-1978 310 -1983 315 -3 3 2958 5 6579 5 5910 -1 6582 -2 6564 -16z m1277
-1892 l540 -902 -67 -433 c-37 -237 -77 -499 -90 -582 -31 -199 -850 -5444
-875 -5605 -11 -69 -31 -195 -44 -280 -14 -85 -36 -231 -51 -325 -15 -93 -134
-854 -265 -1690 l-238 -1520 -1 6580 -1 6580 276 -460 c152 -253 519 -866 816
-1363z m-359 1407 c413 -245 653 -387 872 -516 121 -72 283 -167 360 -213 254
-151 578 -342 725 -428 l145 -86 1340 -1833 c737 -1009 1342 -1836 1344 -1839
2 -2 2 -4 0 -4 -2 0 -1154 1150 -2559 2556 -1939 1939 -2542 2548 -2500 2523
30 -17 153 -90 273 -160z m-1135 67 c-7 -13 -330 -560 -718 -1216 l-705 -1192
-1829 -1336 c-1006 -736 -1836 -1341 -1845 -1346 -9 -4 1136 1144 2544 2553
1408 1408 2561 2561 2563 2561 1 0 -3 -11 -10 -24z m11097 -98 c-3 -29 -10
-125 -16 -213 -139 -2084 -936 -4156 -2243 -5830 -460 -589 -1032 -1179 -1611
-1661 -1569 -1308 -3494 -2144 -5520 -2398 -316 -39 -812 -79 -820 -66 -5 10
199 1295 207 1300 4 3 72 11 151 18 416 34 978 128 1412 236 920 228 1780 582
2600 1069 159 95 635 408 698 459 l28 23 -23 21 -23 21 -172 -121 c-548 -385
-1234 -755 -1888 -1016 -803 -321 -1681 -535 -2557 -625 -164 -17 -218 -19
-218 -7 -1 9 233 1516 235 1520 1 1 80 14 176 28 1564 227 3020 925 4209 2018
58 53 110 94 117 92 7 -3 160 -114 340 -247 466 -345 472 -339 124 136 l-249
339 42 47 c22 25 93 104 157 175 1015 1128 1697 2588 1915 4094 14 102 27 186
28 188 2 1 358 57 792 125 l789 123 3 -24 c9 -63 -57 -593 -113 -904 -248
-1396 -838 -2774 -1663 -3882 l-103 -137 23 -19 c13 -10 26 -16 30 -14 14 9
219 296 326 456 839 1255 1348 2629 1527 4120 13 112 27 250 31 306 4 64 11
105 19 108 15 6 1193 192 1223 193 21 1 22 -2 17 -51z m-20850 -56 l620 -97 7
-60 c3 -33 11 -114 18 -180 144 -1481 659 -2934 1488 -4200 110 -168 287 -421
302 -430 4 -3 18 3 29 13 l22 17 -72 100 c-883 1231 -1455 2652 -1663 4131
-31 220 -69 584 -62 591 3 3 360 -50 794 -117 l789 -124 22 -155 c81 -568 243
-1188 454 -1726 364 -933 886 -1764 1580 -2518 l88 -95 -251 -339 c-246 -333
-274 -379 -225 -377 11 0 172 111 358 248 l339 247 95 -88 c1195 -1101 2654
-1801 4228 -2028 99 -14 180 -27 181 -28 7 -10 236 -1519 230 -1524 -9 -9
-239 12 -481 43 -1571 203 -3044 785 -4334 1714 -137 99 -143 101 -162 84 -10
-9 -19 -20 -19 -24 0 -10 334 -248 510 -363 1048 -683 2227 -1157 3453 -1386
303 -57 714 -113 939 -127 53 -4 101 -10 106 -13 7 -5 198 -1194 205 -1281 2
-24 1 -25 -68 -22 -477 19 -1175 113 -1700 228 -1828 402 -3450 1230 -4875
2490 -208 183 -729 708 -913 920 -530 610 -951 1206 -1326 1877 -736 1318
-1197 2839 -1315 4337 -25 319 -27 360 -19 360 4 -1 287 -45 628 -98z m17665
-412 c0 -40 -72 -440 -111 -619 -258 -1173 -807 -2289 -1585 -3221 -124 -150
-324 -373 -329 -368 -1 2 -167 229 -369 505 l-366 502 111 133 c662 791 1113
1706 1339 2717 22 95 40 175 42 176 5 5 1202 193 1236 194 26 1 32 -3 32 -19z
m-14480 -85 c338 -53 621 -99 629 -103 8 -5 27 -68 46 -152 79 -354 203 -750
330 -1055 259 -625 644 -1253 1061 -1731 35 -40 64 -78 64 -83 0 -6 -165 -233
-366 -506 l-366 -496 -25 23 c-14 13 -73 77 -132 143 -968 1085 -1592 2381
-1836 3813 -36 211 -40 242 -27 242 4 0 284 -43 622 -95z m13045 -137 c-2 -13
-16 -75 -30 -138 -181 -811 -562 -1637 -1070 -2320 -109 -146 -305 -389 -316
-390 -7 0 -239 318 -239 329 0 4 33 48 73 98 439 541 787 1173 1006 1830 43
129 72 232 145 503 l12 45 194 32 c243 39 232 38 225 11z m-12025 -23 c217
-33 209 -31 216 -63 46 -212 150 -543 256 -809 214 -542 532 -1083 900 -1535
57 -69 77 -101 71 -112 -17 -30 -228 -315 -234 -316 -3 0 -47 50 -98 111 -615
736 -1047 1590 -1275 2519 -63 255 -61 243 -28 236 15 -3 101 -17 192 -31z
m11520 -41 c0 -16 -57 -226 -100 -367 -170 -559 -448 -1130 -789 -1614 -109
-156 -295 -395 -310 -401 -5 -2 -333 442 -730 985 -569 779 -718 989 -704 992
33 8 2588 409 2611 410 12 0 22 -2 22 -5z m-9885 -214 c710 -110 1297 -204
1306 -208 13 -6 -131 -207 -707 -987 -397 -539 -727 -981 -732 -983 -17 -5
-261 312 -399 518 -344 516 -590 1054 -759 1659 -30 107 -54 198 -54 203 0 5
12 7 28 4 15 -3 608 -96 1317 -206z m7010 -2138 c534 -393 974 -718 978 -722
14 -13 -298 -254 -529 -408 -421 -281 -904 -516 -1389 -675 -187 -61 -439
-130 -458 -125 -10 2 39 338 194 1328 115 729 208 1326 208 1328 2 6 36 -19
996 -726z m-4263 -614 c114 -728 205 -1324 203 -1326 -6 -7 -282 71 -464 130
-572 186 -1078 442 -1561 786 -156 111 -373 283 -366 289 11 11 1972 1442
1976 1443 3 0 98 -595 212 -1322z m5492 -292 c81 -59 146 -112 144 -117 -2 -4
-52 -49 -113 -99 -624 -521 -1365 -926 -2131 -1166 -164 -51 -564 -154 -599
-154 l-22 0 33 204 c18 113 35 209 38 214 3 5 23 13 43 16 77 14 370 99 537
156 654 224 1300 587 1831 1028 49 41 62 48 75 39 9 -7 82 -61 164 -121z
m-7539 -45 c610 -474 1349 -837 2102 -1031 86 -22 159 -43 162 -45 5 -6 71
-418 67 -422 -3 -4 -275 61 -412 97 -830 223 -1656 654 -2338 1219 l-126 104
123 90 c67 49 142 104 167 122 l45 33 35 -29 c19 -16 98 -78 175 -138z m8314
-527 c273 -201 497 -369 499 -374 8 -20 -422 -388 -678 -579 -363 -272 -735
-501 -1150 -710 -619 -310 -1220 -519 -1885 -655 -191 -39 -495 -89 -501 -83
-4 3 178 1192 191 1253 4 18 23 24 136 48 867 182 1751 586 2472 1128 135 101
363 286 392 318 10 11 20 20 23 20 2 0 228 -165 501 -366z m-8964 345 c12 -19
248 -211 390 -317 723 -541 1551 -922 2425 -1117 86 -19 164 -35 173 -35 9 0
19 -10 22 -22 14 -62 195 -1251 191 -1255 -3 -3 -81 7 -173 22 -1416 228
-2698 822 -3778 1750 -71 61 -163 143 -204 181 l-74 70 503 367 c276 202 506
367 511 367 4 0 11 -5 14 -11z m-3475 -3273 l118 -113 -356 -128 c-197 -71
-427 -154 -512 -186 -85 -31 -156 -55 -158 -54 -3 3 355 1002 364 1017 3 4
100 -89 216 -207 116 -119 264 -266 328 -329z m16051 -19 c94 -263 170 -480
167 -482 -2 -2 -100 31 -218 74 -118 43 -338 122 -488 176 -150 54 -271 101
-270 104 2 3 84 83 183 177 99 95 238 233 309 308 71 75 133 133 137 129 4 -4
85 -223 180 -486z"/>
<path d="M9776 23701 c-78 -78 -88 -92 -76 -106 12 -14 18 -12 55 25 29 29 44
37 48 28 3 -7 41 -93 85 -190 44 -98 79 -178 77 -178 -2 0 -101 41 -220 91
-130 54 -221 87 -226 82 -6 -6 26 -95 80 -224 49 -118 88 -215 86 -217 -3 -3
-357 143 -378 155 -5 3 8 22 28 43 35 36 40 60 12 60 -7 0 -70 -58 -141 -129
-113 -114 -128 -132 -116 -146 12 -14 17 -12 50 20 l37 36 309 -130 c189 -79
313 -126 318 -120 10 9 -13 70 -127 341 l-46 108 37 -15 c20 -9 119 -50 220
-92 132 -55 186 -73 194 -65 8 8 -27 95 -122 312 l-133 301 34 35 c29 30 31
36 18 49 -13 13 -25 4 -103 -74z"/>
<path d="M8834 22795 c-93 -55 -130 -165 -97 -290 3 -13 -14 -2 -50 34 l-55
53 -38 -43 c-22 -24 -63 -70 -93 -101 -46 -49 -52 -60 -41 -73 12 -14 18 -11
55 25 l41 40 194 -195 193 -196 -42 -43 c-36 -37 -40 -44 -27 -55 13 -11 36 6
151 115 74 71 135 132 135 135 0 4 -7 12 -15 19 -13 11 -22 7 -54 -24 l-38
-37 -118 123 c-136 142 -175 208 -175 296 0 90 50 162 102 148 13 -3 106 -89
208 -190 l184 -185 -39 -35 c-38 -33 -39 -35 -22 -52 17 -18 23 -13 157 121
124 123 138 141 125 154 -13 14 -20 10 -60 -29 l-45 -44 -164 162 c-96 95
-178 168 -199 177 -55 23 -125 19 -173 -10z"/>
<path d="M22360 23495 c-11 -14 -7 -22 26 -56 l38 -39 -194 -195 -195 -195
-41 41 c-36 36 -42 38 -54 24 -12 -14 3 -33 121 -151 118 -118 135 -132 148
-119 13 13 11 19 -22 53 l-37 38 122 121 c132 129 190 167 275 179 89 11 186
-50 167 -108 -4 -12 -88 -105 -187 -206 l-181 -182 -38 37 c-34 33 -40 35 -53
22 -13 -13 1 -31 124 -153 127 -127 161 -151 161 -112 0 6 -18 29 -40 51 l-40
39 148 150 c180 183 206 223 200 305 -5 68 -34 115 -101 159 -37 24 -49 27
-133 27 l-93 0 49 50 50 51 -31 23 c-17 13 -64 54 -104 92 -63 60 -74 67 -85
54z"/>
<path d="M22950 22731 c-127 -39 -229 -152 -248 -276 -17 -103 8 -200 68 -269
73 -83 176 -113 281 -83 70 21 99 41 82 58 -10 10 -20 9 -50 -5 -97 -46 -201
-28 -272 49 -72 78 -58 124 83 272 l65 68 145 -144 c163 -162 156 -160 203
-67 34 67 41 148 18 217 -24 70 -101 149 -169 172 -51 17 -161 21 -206 8z
m222 -60 c30 -11 78 -59 89 -90 14 -37 -6 -84 -56 -130 -25 -23 -48 -41 -53
-41 -4 0 -43 36 -87 80 l-79 80 38 39 c38 39 88 70 113 71 6 0 22 -4 35 -9z"/>
<path d="M17769 23017 c-89 -59 -86 -172 4 -227 39 -24 78 -25 123 -4 97 46
98 191 1 237 -48 23 -88 21 -128 -6z"/>
<path d="M19475 22321 c-125 -58 -82 -251 55 -251 76 0 133 58 133 136 0 98
-97 158 -188 115z"/>
<path d="M14129 23017 c-89 -59 -86 -172 4 -227 85 -53 197 13 197 115 0 106
-115 170 -201 112z"/>
<path d="M12443 22321 c-48 -22 -73 -62 -73 -118 0 -121 146 -178 227 -89 28
31 33 43 33 87 0 65 -33 113 -88 129 -48 13 -50 13 -99 -9z"/>
<path d="M22029 19737 c-69 -46 -76 -142 -14 -204 29 -29 39 -33 88 -33 61 0
96 21 122 70 62 120 -83 243 -196 167z"/>
<path d="M22754 18056 c-50 -23 -74 -61 -74 -121 0 -58 21 -95 70 -120 113
-59 235 69 176 184 -30 56 -113 84 -172 57z"/>
<path d="M9854 19741 c-39 -24 -68 -91 -58 -135 15 -70 62 -106 140 -106 41 0
51 5 86 40 39 39 40 42 36 97 -4 49 -9 60 -41 90 -31 28 -44 33 -84 33 -29 0
-60 -7 -79 -19z"/>
<path d="M9170 18053 c-43 -22 -80 -76 -80 -117 0 -138 195 -187 253 -63 22
46 21 85 -3 124 -38 64 -110 87 -170 56z"/>
<path d="M22900 10011 c-5 -11 -10 -31 -10 -45 0 -15 -6 -26 -13 -26 -37 0
-121 -34 -153 -62 -52 -46 -74 -96 -74 -171 0 -53 5 -71 29 -110 55 -86 150
-125 237 -97 22 7 83 42 136 77 110 74 139 80 175 39 41 -48 24 -116 -45 -178
-52 -47 -101 -57 -162 -34 -25 10 -52 18 -60 19 -33 4 -17 -32 39 -87 62 -61
87 -67 76 -16 -6 26 -4 28 44 40 176 42 231 268 89 370 -34 25 -51 30 -97 30
-66 0 -115 -21 -204 -83 -99 -71 -124 -81 -159 -66 -65 27 -81 114 -34 193 20
33 40 51 81 72 66 32 118 30 215 -10 93 -37 91 -13 -6 85 -43 43 -82 79 -86
79 -4 0 -12 -9 -18 -19z"/>
<path d="M22355 9468 c-83 -29 -165 -114 -186 -191 -6 -23 -9 -67 -6 -98 5
-55 39 -139 57 -139 19 0 19 18 0 69 -39 101 -21 188 52 259 73 70 135 51 266
-79 l73 -73 -146 -146 -145 -146 55 -36 c158 -104 370 -28 422 151 20 69 13
169 -15 233 -30 69 -106 146 -177 179 -51 25 -72 29 -140 28 -44 0 -93 -5
-110 -11z m388 -420 c2 -71 -79 -149 -140 -133 -27 6 -123 91 -123 109 0 6 35
46 77 88 l78 78 53 -53 c43 -44 54 -61 55 -89z"/>
<path d="M8830 9950 l-295 -129 -36 35 c-32 31 -37 33 -49 19 -11 -13 -1 -28
71 -103 46 -48 86 -88 90 -90 3 -1 12 4 19 13 11 14 8 21 -25 55 -34 35 -36
39 -18 48 17 9 258 117 330 148 l32 14 -43 -103 c-24 -56 -65 -152 -91 -214
-54 -127 -54 -150 -3 -129 228 96 402 166 403 164 1 -2 -34 -90 -78 -196 l-81
-192 -38 37 c-34 33 -40 35 -53 22 -13 -13 1 -30 114 -149 123 -129 130 -134
147 -118 17 17 17 19 -14 51 -18 18 -32 37 -32 42 0 5 57 144 126 308 88 209
123 302 115 310 -7 7 -74 -16 -222 -77 -116 -48 -213 -86 -215 -83 -2 2 37 99
86 216 49 118 87 217 84 222 -3 5 -11 9 -17 8 -7 0 -145 -58 -307 -129z"/>
<path d="M9655 9379 c-43 -12 -102 -64 -125 -110 -24 -46 -26 -125 -5 -177 9
-20 41 -74 72 -119 64 -94 72 -133 32 -166 -31 -25 -105 -19 -145 12 -76 60
-98 143 -59 224 13 29 15 41 6 50 -8 8 -27 -4 -76 -53 -35 -35 -62 -67 -59
-72 3 -5 20 -8 37 -6 29 3 32 0 37 -32 19 -106 108 -180 218 -180 107 0 187
80 186 185 -1 57 -20 100 -94 208 -74 108 -76 158 -10 192 40 21 86 19 136 -5
98 -48 130 -166 79 -294 -20 -50 -24 -71 -16 -79 8 -8 33 11 96 73 91 91 95
106 27 112 -34 3 -37 5 -44 45 -25 148 -155 233 -293 192z"/>
<path d="M22754 14416 c-50 -22 -74 -61 -74 -121 0 -78 54 -135 130 -135 136
0 180 195 57 253 -42 20 -71 21 -113 3z"/>
<path d="M22034 12711 c-81 -49 -81 -173 1 -227 31 -20 109 -20 141 1 61 39
81 122 44 182 -37 61 -124 82 -186 44z"/>
<path d="M9170 14412 c-43 -21 -80 -75 -80 -116 0 -70 66 -136 135 -136 44 0
96 31 117 71 39 69 7 153 -69 185 -42 18 -61 18 -103 -4z"/>
<path d="M9860 12714 c-80 -54 -88 -164 -15 -220 88 -67 215 -6 215 103 0 100
-120 170 -200 117z"/>
<path d="M19471 10143 c-43 -22 -71 -68 -71 -118 0 -103 111 -168 197 -115 45
27 66 64 66 115 0 99 -104 163 -192 118z"/>
<path d="M17796 9450 c-85 -26 -119 -130 -68 -208 34 -52 121 -68 179 -32 97
59 75 209 -36 240 -41 11 -36 11 -75 0z"/>
<path d="M12443 10145 c-42 -18 -73 -69 -73 -120 0 -99 104 -165 190 -120 49
25 70 62 70 120 0 61 -24 99 -76 121 -42 17 -70 17 -111 -1z"/>
<path d="M14156 9450 c-42 -13 -75 -48 -87 -93 -22 -83 41 -167 125 -167 142
0 189 188 62 250 -46 22 -56 23 -100 10z"/>
<path d="M13125 29186 c-130 -36 -150 -44 -153 -62 -3 -21 36 -336 43 -342 1
-2 30 6 64 18 168 56 298 -9 288 -146 -7 -104 -79 -158 -214 -159 l-82 0 -6
-34 c-4 -19 -2 -38 4 -44 16 -16 138 -12 202 6 152 45 232 189 187 338 -16 54
-69 113 -120 134 -49 20 -144 22 -207 5 -24 -6 -45 -10 -46 -8 -5 5 -27 180
-23 183 2 1 63 18 137 38 73 20 135 38 137 40 2 2 -1 20 -7 40 -13 46 -12 46
-204 -7z"/>
<path d="M19045 29105 c-27 -7 -62 -16 -77 -19 -25 -6 -28 -11 -28 -46 0 -22
3 -40 8 -40 4 0 34 7 67 14 33 8 61 13 63 11 2 -2 -148 -579 -163 -622 -3 -8
14 -18 43 -27 26 -7 48 -12 50 -11 2 2 47 166 101 366 l97 364 -30 12 c-39 15
-69 14 -131 -2z"/>
<path d="M12642 29056 c-24 -6 -47 -18 -52 -26 -5 -9 -51 -134 -104 -278 -72
-199 -94 -270 -89 -293 3 -16 9 -31 13 -34 6 -3 244 56 317 79 19 6 23 2 33
-36 42 -161 41 -158 69 -151 14 3 36 9 47 14 l21 7 -23 89 c-13 48 -24 93 -24
100 0 6 22 16 49 23 l49 11 -11 40 c-9 36 -12 40 -35 34 -84 -21 -77 -25 -100
62 -12 43 -39 143 -60 223 -22 79 -43 145 -48 146 -5 1 -28 -3 -52 -10z m73
-467 c-14 -9 -216 -61 -220 -57 -1 2 21 66 51 143 29 77 60 169 70 204 l18 63
46 -173 c29 -112 42 -176 35 -180z"/>
<path d="M19552 28983 c-18 -34 -133 -315 -130 -317 2 -2 30 -8 63 -16 163
-34 233 -115 200 -229 -23 -76 -74 -111 -163 -111 -49 0 -111 24 -164 62 -30
21 -31 21 -45 2 -37 -49 -36 -52 19 -88 171 -112 372 -76 444 79 29 62 31 143
5 200 -31 70 -121 133 -213 150 l-36 7 24 54 c13 29 30 69 38 88 l15 35 131
-35 c73 -20 138 -33 145 -31 12 5 29 66 20 75 -5 5 -324 92 -337 92 -4 0 -11
-8 -16 -17z"/>
<path d="M11923 28875 c-51 -15 -121 -56 -146 -83 -14 -16 -16 -25 -8 -39 27
-47 26 -46 78 -9 89 64 171 71 218 20 70 -76 14 -183 -113 -217 -41 -11 -43
-13 -38 -41 9 -43 20 -50 57 -37 17 6 57 11 88 11 96 0 154 -52 155 -140 1
-61 -23 -96 -90 -130 -41 -21 -62 -25 -131 -24 -69 0 -83 -2 -83 -15 0 -9 -3
-26 -6 -38 -7 -27 17 -35 101 -34 131 2 250 63 295 152 24 45 27 134 6 182
-25 61 -111 117 -180 117 -17 0 -16 4 12 33 44 46 65 101 57 153 -18 120 -138
181 -272 139z"/>
<path d="M9905 28030 c-85 -12 -162 -79 -185 -161 -44 -152 78 -420 243 -534
49 -33 67 -40 120 -43 97 -6 176 37 219 121 17 35 20 54 16 132 -4 87 -7 97
-56 197 -100 202 -230 306 -357 288z m97 -116 c100 -64 228 -297 228 -412 0
-63 -42 -116 -99 -127 -78 -15 -197 100 -276 268 -70 147 -63 257 18 293 39
17 80 10 129 -22z"/>
<path d="M22180 27924 c0 -11 -3 -28 -6 -40 -5 -19 0 -22 47 -28 65 -9 119
-36 154 -78 36 -42 30 -97 -14 -141 -48 -49 -112 -43 -233 21 -4 2 -14 -11
-24 -29 -14 -29 -15 -34 -1 -43 8 -6 36 -26 62 -44 58 -40 90 -106 80 -160 -8
-43 -72 -111 -106 -113 -94 -6 -171 35 -234 124 l-20 28 -33 -28 -34 -28 31
-41 c37 -52 81 -86 152 -119 100 -45 184 -43 260 7 38 25 89 116 89 157 0 44
-20 99 -46 131 l-26 30 44 0 c94 1 169 65 184 157 5 35 1 53 -20 97 -39 80
-134 137 -248 151 -52 7 -58 5 -58 -11z"/>
<path d="M9323 27710 c-59 -24 -146 -97 -170 -143 -15 -30 -15 -32 12 -55 l27
-23 48 53 c84 94 170 112 224 47 49 -58 27 -139 -54 -198 -23 -16 -47 -32 -53
-34 -9 -3 -7 -14 7 -40 l18 -36 61 31 c104 53 196 37 238 -42 59 -109 -30
-215 -203 -245 -33 -5 -38 -9 -38 -33 0 -47 13 -56 69 -49 105 12 230 96 271
183 18 36 21 58 18 109 -7 116 -82 188 -198 189 l-58 0 19 38 c11 22 19 58 19
89 0 135 -123 211 -257 159z"/>
<path d="M22780 27600 c-88 -16 -178 -86 -250 -197 -90 -136 -128 -281 -101
-381 25 -89 114 -153 215 -153 96 0 181 53 260 164 144 203 176 396 83 495
-52 55 -136 84 -207 72z m100 -95 c16 -8 36 -25 44 -37 22 -31 20 -113 -4
-184 -45 -131 -174 -301 -247 -325 -100 -33 -179 51 -153 165 42 187 204 395
308 396 13 0 36 -7 52 -15z"/>
<path d="M8803 27410 c-59 -24 -146 -97 -170 -143 -15 -30 -15 -31 13 -54 l29
-22 43 50 c82 93 160 113 218 55 38 -38 45 -86 20 -135 -18 -33 -76 -86 -105
-96 -25 -8 -26 -18 -4 -55 l16 -28 61 31 c108 55 200 37 240 -47 52 -110 -35
-212 -206 -241 -40 -6 -44 -16 -31 -64 6 -22 10 -23 59 -18 109 11 243 103
280 192 37 89 4 205 -73 259 -37 25 -52 30 -107 30 l-64 0 19 37 c25 50 25
128 -1 178 -40 79 -141 109 -237 71z"/>
<path d="M6976 26001 c-121 -121 -128 -131 -115 -150 8 -11 57 -76 109 -145
l95 -125 65 63 c77 76 114 96 173 96 59 0 118 -42 141 -101 37 -92 -16 -189
-137 -250 -23 -12 -43 -23 -45 -24 -3 -3 25 -64 34 -73 1 -2 30 11 64 29 75
40 152 122 174 185 58 170 -51 337 -219 337 -72 0 -126 -24 -195 -89 l-46 -43
-57 77 -57 76 102 103 103 103 -30 30 -30 30 -129 -129z"/>
<path d="M24967 25716 c-241 -44 -291 -56 -310 -74 l-22 -22 125 -125 125
-125 -73 -73 -72 -72 37 -38 38 -37 72 72 73 72 38 -37 38 -37 29 30 29 30
-37 38 -37 38 165 164 165 165 -42 42 c-23 24 -45 43 -48 42 -3 0 -135 -24
-293 -53z m105 -160 l-127 -125 -83 82 c-68 68 -79 83 -65 89 10 4 88 18 175
32 86 14 167 30 180 35 53 22 41 5 -80 -113z"/>
<path d="M6552 25577 c-22 -23 -39 -57 -57 -116 -13 -46 -22 -87 -19 -92 9
-15 62 -40 67 -31 2 4 12 35 22 70 l19 63 230 -230 c127 -127 236 -231 242
-231 13 0 64 52 64 66 0 9 -521 534 -531 534 -3 0 -19 -15 -37 -33z"/>
<path d="M25392 25383 l-141 -108 58 -56 c95 -90 122 -167 85 -245 -32 -67
-111 -104 -182 -85 -53 15 -114 70 -148 135 -16 31 -33 56 -37 56 -11 0 -67
-30 -67 -36 0 -19 59 -115 95 -153 56 -59 124 -94 196 -99 98 -7 185 39 235
124 22 38 28 59 28 108 -1 73 -25 127 -90 196 l-45 48 78 56 78 56 102 -102
103 -102 30 29 30 29 -127 128 c-70 70 -130 128 -134 128 -3 0 -69 -48 -147
-107z"/>
<path d="M6205 25201 c-74 -18 -144 -79 -189 -165 -35 -66 -34 -89 7 -108 l33
-16 17 49 c45 126 148 175 224 106 29 -28 36 -40 36 -73 0 -47 -30 -108 -72
-148 l-31 -30 26 -27 27 -28 51 45 c61 54 128 77 180 63 42 -12 93 -67 101
-112 14 -73 -61 -173 -160 -214 -50 -20 -51 -22 -30 -63 18 -36 22 -36 81 -9
63 30 144 107 178 169 91 167 -35 359 -210 320 -27 -6 -54 -16 -62 -22 -11 -9
-12 -6 -5 18 15 55 8 128 -15 167 -39 62 -117 95 -187 78z"/>
<path d="M4835 23421 c-144 -35 -211 -195 -140 -331 58 -112 204 -220 359
-265 72 -21 170 -22 216 -3 109 47 162 192 111 305 -52 113 -244 250 -403 288
-68 16 -96 17 -143 6z m138 -112 c196 -65 361 -216 343 -313 -9 -50 -56 -88
-113 -93 -124 -12 -374 132 -434 249 -23 45 -24 79 -4 118 32 61 102 74 208
39z"/>
<path d="M27076 23153 c-136 -28 -275 -122 -321 -218 -10 -22 -21 -66 -23 -98
-4 -50 0 -66 28 -123 51 -104 136 -152 248 -141 96 10 196 78 230 156 21 51
19 139 -6 187 -26 51 -94 113 -132 121 -17 3 -30 9 -30 13 0 24 146 27 213 4
52 -18 125 -78 157 -129 23 -37 28 -37 75 -2 19 15 19 16 -9 56 -102 147 -256
209 -430 174z m20 -188 c46 -35 68 -86 61 -143 -12 -110 -179 -190 -274 -132
-34 20 -50 44 -64 94 -17 60 30 146 105 192 54 33 119 29 172 -11z"/>
<path d="M4518 22896 c-97 -35 -141 -95 -146 -201 -4 -62 0 -79 22 -123 96
-189 432 -341 582 -264 115 59 157 192 98 310 -39 78 -138 163 -259 223 -134
66 -221 82 -297 55z m153 -106 c132 -41 290 -154 329 -235 39 -81 -2 -160 -87
-172 -119 -16 -385 133 -443 248 -24 46 -25 80 -5 119 31 61 98 74 206 40z"/>
<path d="M27440 22674 c-117 -31 -240 -104 -321 -191 -61 -65 -80 -104 -86
-174 -5 -46 -1 -66 17 -103 68 -141 229 -172 419 -81 224 107 337 253 301 386
-37 137 -173 204 -330 163z m191 -100 c38 -19 63 -75 54 -120 -14 -75 -178
-209 -319 -260 -107 -38 -166 -36 -212 10 -27 27 -34 42 -34 73 0 80 96 182
238 253 122 61 213 76 273 44z"/>
<path d="M4245 22373 c-55 -10 -69 -17 -109 -53 -51 -47 -93 -133 -102 -212
-6 -52 -5 -55 17 -61 50 -14 56 -9 62 42 15 125 98 202 181 167 85 -35 91
-118 18 -258 -2 -4 11 -16 28 -27 l32 -19 42 61 c62 92 139 122 215 83 114
-59 83 -232 -58 -328 l-24 -17 24 -30 c13 -16 29 -30 35 -30 24 -2 112 90 142
147 41 77 55 148 41 211 -27 128 -173 200 -287 142 -22 -11 -43 -25 -47 -31
-11 -18 -22 -10 -18 13 11 56 -37 150 -90 179 -28 15 -77 25 -102 21z"/>
<path d="M3270 20326 c0 -2 -20 -80 -45 -172 -25 -93 -41 -171 -37 -175 5 -5
228 -100 319 -136 7 -3 16 17 23 54 14 67 43 139 68 166 59 65 156 68 226 7
69 -61 69 -169 0 -272 -19 -28 -33 -52 -32 -53 2 -1 17 -11 35 -23 l32 -22 25
33 c65 85 92 218 65 314 -17 61 -98 146 -155 162 -97 27 -195 3 -248 -60 -35
-41 -76 -126 -76 -157 0 -12 -6 -25 -13 -28 -18 -7 -167 63 -167 78 0 7 16 70
34 140 l34 127 -30 10 c-32 11 -58 14 -58 7z"/>
<path d="M28742 20107 c-23 -7 -31 -15 -28 -26 30 -101 88 -332 85 -336 -3 -2
-166 27 -363 66 -197 39 -359 69 -361 67 -2 -2 1 -23 7 -47 7 -27 18 -46 32
-52 12 -5 181 -38 376 -74 349 -65 439 -74 427 -42 -2 7 -30 112 -63 234 -32
123 -63 223 -69 222 -5 -1 -25 -6 -43 -12z"/>
<path d="M3225 19735 c-5 -2 -22 -6 -37 -9 -109 -24 -180 -225 -120 -343 54
-105 180 -134 278 -64 25 17 44 25 44 18 0 -34 52 -118 90 -146 152 -110 340
26 340 246 0 118 -61 201 -167 224 -45 10 -59 10 -99 -6 -26 -10 -63 -33 -83
-51 l-36 -32 -19 44 c-32 77 -131 139 -191 119z m90 -124 c18 -10 37 -35 49
-64 20 -47 20 -48 1 -84 -25 -45 -80 -83 -123 -83 -98 0 -152 99 -104 190 35
66 107 82 177 41z m362 -71 c47 -28 67 -65 66 -119 -2 -124 -107 -195 -211
-142 -48 25 -82 81 -82 136 0 28 9 45 42 81 24 26 52 50 63 55 35 14 89 9 122
-11z"/>
<path d="M28805 19448 c-77 -10 -154 -21 -171 -23 l-30 -5 24 -72 c55 -165 -2
-283 -137 -283 -47 0 -64 5 -93 27 -53 40 -72 88 -76 191 l-4 87 -38 0 c-38 0
-39 -1 -45 -44 -10 -65 11 -174 46 -234 53 -94 138 -138 246 -129 165 13 253
163 199 340 l-14 46 42 6 c22 3 66 7 96 8 l55 2 36 -135 c20 -74 40 -134 45
-133 5 1 24 4 42 8 17 3 32 11 32 16 0 9 -66 264 -86 332 -3 9 -11 16 -17 16
-7 -1 -75 -10 -152 -21z"/>
<path d="M3015 19122 c-22 -11 -50 -30 -62 -43 -57 -62 -85 -192 -61 -284 13
-49 14 -50 51 -49 21 1 39 3 42 5 2 2 -3 28 -11 57 -26 102 17 201 95 222 29
8 50 6 91 -6 92 -27 158 -108 304 -370 43 -79 62 -103 82 -108 15 -4 29 -4 33
-1 3 4 33 109 67 233 l60 227 -38 14 c-22 7 -41 11 -44 9 -2 -3 -23 -75 -46
-162 -32 -121 -45 -154 -53 -142 -5 8 -39 66 -75 128 -72 124 -150 215 -217
255 -60 35 -161 42 -218 15z"/>
<path d="M0 17200 l0 -260 45 0 45 0 0 68 c0 92 15 117 66 116 37 -1 114 -30
928 -354 l219 -87 -355 -142 -355 -142 -229 113 c-153 76 -234 122 -247 140
-13 18 -21 49 -25 97 l-5 71 -43 0 -44 0 0 -1035 0 -1035 45 0 45 0 0 99 0 99
773 310 c424 171 832 334 905 363 l132 52 0 49 0 49 -242 117 c-134 64 -307
148 -386 187 l-143 70 385 155 386 155 -2 50 -3 49 -867 346 c-477 190 -879
354 -895 366 -31 24 -40 52 -42 137 l-1 57 -45 0 -45 0 0 -260z m332 -779
l142 -67 -145 -58 c-79 -32 -166 -67 -192 -77 l-49 -19 4 136 c4 196 5 197
240 85z m843 -407 c98 -47 174 -89 169 -93 -10 -9 -1235 -501 -1247 -501 -4 0
-6 70 -5 156 l3 156 450 183 c248 100 450 183 451 184 0 1 81 -38 179 -85z"/>
<path d="M30150 16051 l0 -809 63 -6 c34 -3 139 -10 232 -16 94 -6 203 -13
243 -16 l72 -6 0 48 0 49 -98 33 c-53 18 -126 50 -162 72 -127 75 -225 207
-250 339 -5 30 -10 139 -10 242 l0 189 400 0 400 0 0 -68 c0 -181 -96 -291
-281 -324 l-59 -10 0 -44 0 -44 380 0 380 0 0 45 c0 41 -2 45 -27 51 -119 26
-200 73 -243 141 -37 58 -48 98 -52 183 l-3 65 394 3 393 2 -5 -207 c-3 -150
-9 -221 -20 -254 -53 -160 -130 -234 -327 -315 l-75 -31 -3 -48 -3 -48 78 6
c43 4 148 9 233 12 85 3 170 8 188 11 l32 5 0 779 0 780 -50 0 -50 0 0 -120 0
-120 -840 0 -840 0 0 120 0 120 -45 0 -45 0 0 -809z"/>
<path d="M3361 13548 c-57 -10 -114 -48 -148 -99 -33 -50 -43 -167 -20 -240
l14 -47 -91 -10 c-50 -6 -94 -7 -98 -4 -3 4 -21 63 -39 132 -17 69 -35 128
-38 132 -8 9 -81 -10 -81 -20 -1 -17 84 -328 91 -336 7 -8 348 29 357 39 2 2
-6 33 -17 70 -40 129 -21 219 55 262 46 26 112 30 153 8 70 -36 105 -113 99
-222 -2 -51 0 -63 12 -64 8 0 27 -2 42 -4 25 -3 27 0 34 43 4 25 2 74 -5 110
-34 183 -157 279 -320 250z"/>
<path d="M28360 13375 c-7 -25 -10 -48 -7 -51 11 -11 710 -195 723 -190 24 9
28 75 9 160 -9 45 -21 86 -26 92 -8 10 -66 10 -75 1 -2 -1 4 -31 13 -65 9 -35
14 -65 11 -67 -3 -3 -514 129 -619 161 -12 3 -19 -7 -29 -41z"/>
<path d="M28348 12976 c-81 -29 -129 -80 -148 -158 -33 -129 41 -242 203 -312
102 -45 177 -60 287 -60 95 -1 110 2 157 27 76 39 107 90 111 182 3 58 0 80
-17 113 -64 126 -269 223 -470 222 -47 -1 -103 -7 -123 -14z m297 -120 c154
-49 235 -118 235 -198 0 -30 -7 -46 -28 -68 -58 -58 -162 -62 -327 -15 -101
30 -151 54 -200 96 -74 66 -66 161 17 200 59 28 191 21 303 -15z"/>
<path d="M3494 12961 c-60 -20 -88 -39 -119 -81 -46 -62 -53 -162 -19 -277 6
-21 3 -23 -27 -24 -19 0 -45 -2 -59 -4 -14 -3 -41 -7 -61 -10 l-36 -5 -38 140
c-21 77 -41 140 -44 140 -3 0 -23 -5 -44 -11 -26 -7 -37 -15 -33 -24 2 -7 23
-85 46 -172 23 -87 44 -160 46 -162 3 -3 356 39 362 43 1 2 -6 27 -17 57 -28
83 -33 130 -20 182 20 81 96 128 185 114 87 -14 139 -96 139 -219 0 -83 5 -89
63 -80 20 4 22 9 22 76 0 40 -7 95 -15 123 -47 157 -191 242 -331 194z"/>
<path d="M3850 12458 c-19 -6 -36 -11 -38 -12 -1 -2 16 -70 38 -152 22 -82 40
-154 40 -161 0 -6 -50 18 -112 54 -198 118 -322 150 -431 114 -82 -28 -146
-114 -147 -197 0 -89 61 -215 122 -252 26 -15 28 -15 52 7 l26 24 -35 38 c-50
56 -69 97 -69 156 0 42 5 57 24 79 92 98 216 75 492 -89 127 -75 149 -85 174
-78 16 4 28 14 28 22 -2 26 -116 444 -122 450 -4 3 -23 2 -42 -3z"/>
<path d="M28132 12447 c-62 -66 -100 -236 -73 -320 32 -96 119 -165 220 -174
131 -12 231 78 265 239 l6 27 82 -35 c46 -19 85 -37 88 -40 2 -3 -12 -68 -31
-144 l-37 -138 41 -11 c23 -5 43 -9 44 -7 5 5 95 348 91 350 -11 9 -330 138
-333 135 -2 -2 -11 -35 -20 -74 -32 -139 -93 -201 -189 -193 -94 8 -150 69
-150 163 0 54 31 135 66 172 23 25 19 37 -21 58 -26 13 -30 12 -49 -8z"/>
<path d="M4477 10394 c-148 -35 -339 -170 -391 -276 -74 -148 19 -308 189
-325 168 -18 445 145 510 300 21 51 19 139 -4 186 -31 59 -91 107 -150 120
-64 14 -81 13 -154 -5z m190 -104 c47 -28 62 -86 38 -141 -35 -77 -125 -151
-261 -216 -59 -28 -92 -37 -150 -41 -73 -5 -74 -4 -109 31 -28 28 -35 43 -35
74 0 53 42 117 111 169 163 124 325 174 406 124z"/>
<path d="M27248 10288 c-45 -70 -69 -48 270 -244 169 -97 317 -183 328 -191
20 -13 23 -11 43 22 16 27 23 61 27 134 l7 98 -26 7 c-14 3 -32 9 -41 12 -14
5 -16 -4 -16 -70 0 -42 -2 -76 -4 -76 -4 0 -473 269 -542 311 -32 19 -32 19
-46 -3z"/>
<path d="M27017 9888 c-42 -72 -161 -279 -183 -320 -2 -3 12 -16 33 -28 29
-17 38 -18 45 -8 4 7 43 73 85 147 l77 133 32 -124 c61 -236 121 -340 226
-392 160 -80 322 41 336 250 l4 72 -41 4 -41 4 0 -47 c0 -119 -81 -218 -166
-203 -46 8 -108 50 -137 91 -41 61 -66 127 -113 308 -32 127 -49 174 -65 188
-12 9 -25 17 -30 17 -4 0 -32 -42 -62 -92z"/>
<path d="M4890 9865 c-41 -25 -80 -45 -86 -45 -6 0 -20 18 -33 40 -12 22 -25
40 -29 40 -6 0 -42 -22 -61 -37 -2 -1 7 -23 20 -47 13 -25 21 -47 19 -49 -3
-2 -93 -55 -200 -117 -107 -61 -196 -113 -198 -114 -1 -2 9 -24 23 -49 29 -51
32 -52 165 -62 47 -4 96 -8 110 -10 14 -2 96 -9 182 -16 126 -9 163 -9 188 1
16 7 30 16 30 21 0 5 -31 64 -70 130 -38 66 -76 132 -84 148 l-15 28 85 49
c46 26 84 53 84 59 0 15 -38 75 -47 75 -5 -1 -42 -21 -83 -45z m-50 -290 c32
-55 57 -101 55 -103 -1 -2 -66 4 -143 12 -78 9 -176 16 -218 16 l-77 0 154 89
c85 49 158 89 163 87 5 -1 35 -47 66 -101z"/>
<path d="M5206 9435 c-10 -8 -24 -16 -29 -18 -6 -2 26 -68 72 -146 45 -79 81
-145 78 -147 -2 -3 -17 0 -33 6 -16 7 -83 25 -149 41 -234 58 -377 32 -452
-83 -39 -58 -39 -150 -1 -223 29 -57 103 -130 151 -150 30 -12 32 -12 54 17
23 31 22 48 -1 48 -21 0 -102 77 -120 114 -34 73 -10 143 64 185 85 47 187 39
455 -39 130 -37 137 -38 164 -23 l28 17 -120 208 c-66 114 -125 208 -131 208
-6 0 -20 -7 -30 -15z"/>
<path d="M26772 9361 c-131 -34 -200 -190 -140 -319 29 -62 105 -137 200 -196
201 -125 382 -130 467 -14 77 104 60 226 -47 340 -119 127 -355 220 -480 189z
m220 -138 c198 -96 298 -217 258 -312 -49 -118 -284 -65 -471 107 -72 66 -97
122 -79 177 29 88 144 99 292 28z"/>
<path d="M6385 7606 c-88 -40 -135 -114 -135 -211 0 -69 29 -133 87 -194 24
-25 40 -48 36 -51 -35 -30 -133 -100 -140 -100 -5 0 -51 43 -103 95 -52 52
-99 95 -105 95 -6 0 -23 -13 -38 -28 l-27 -28 129 -128 c91 -91 133 -126 142
-120 14 8 256 190 273 205 5 4 -19 33 -52 64 -95 87 -122 165 -86 241 33 69
114 106 185 85 53 -16 122 -80 150 -139 12 -26 23 -48 24 -50 2 -2 19 5 39 14
41 20 41 29 -1 103 -85 147 -245 209 -378 147z"/>
<path d="M25342 7557 l-32 -33 270 -269 269 -269 31 29 c22 21 39 55 59 120
l28 90 -36 22 -36 23 -17 -56 c-9 -30 -19 -62 -23 -71 -4 -13 -61 38 -238 215
-128 128 -235 232 -238 232 -3 0 -19 -15 -37 -33z"/>
<path d="M6865 7290 l-29 -30 118 -119 118 -118 -178 -6 c-196 -5 -246 -15
-326 -66 -68 -43 -101 -98 -106 -176 -3 -52 0 -72 19 -110 30 -60 99 -119 168
-146 69 -26 91 -22 108 18 l13 32 -55 16 c-129 37 -190 149 -130 237 59 88
142 109 415 109 174 0 207 2 222 16 10 9 18 21 18 27 0 11 -330 346 -341 346
-3 0 -18 -14 -34 -30z"/>
<path d="M25073 7275 c-65 -33 -144 -110 -173 -170 -47 -98 -36 -188 33 -259
64 -67 149 -82 230 -39 28 14 29 14 20 -9 -4 -13 -8 -50 -8 -84 0 -51 4 -66
29 -98 38 -51 105 -80 160 -72 85 14 167 84 212 180 32 68 30 79 -10 99 l-35
16 -11 -37 c-42 -131 -159 -194 -230 -123 -57 56 -49 131 22 207 l41 45 -28
29 -28 30 -48 -45 c-74 -69 -130 -85 -195 -55 -62 27 -92 87 -79 156 9 49 80
124 147 154 29 13 54 25 56 26 7 4 -33 74 -43 74 -6 0 -34 -11 -62 -25z"/>
<path d="M7292 6867 c-12 -13 -22 -27 -22 -32 0 -6 52 -62 115 -125 l115 -115
-123 1 c-236 3 -346 -24 -427 -105 -74 -74 -89 -159 -44 -249 40 -80 119 -140
214 -161 41 -9 42 -9 56 25 8 18 14 35 14 38 0 2 -22 9 -50 16 -60 14 -134 76
-150 125 -17 51 -4 92 45 141 67 66 110 76 370 81 207 5 221 6 243 26 l23 21
-168 168 c-92 92 -173 168 -179 168 -6 0 -20 -10 -32 -23z"/>
<path d="M24645 6851 c-98 -57 -170 -148 -181 -234 -15 -109 29 -205 120 -258
45 -26 58 -30 116 -26 77 4 124 24 190 84 l49 44 54 -73 55 -73 -101 -102
-102 -103 33 -32 32 -33 125 125 c69 69 125 128 125 133 0 7 -173 240 -204
274 -9 10 -27 -2 -82 -56 -107 -105 -184 -117 -265 -44 -49 44 -65 95 -48 156
13 51 97 138 153 158 41 15 42 18 21 59 -19 37 -27 37 -90 1z"/>
<path d="M9021 5478 c-116 -20 -241 -153 -320 -340 -22 -53 -26 -78 -26 -159
0 -86 3 -99 26 -135 15 -23 47 -51 77 -67 124 -68 268 -15 376 137 95 133 144
274 130 377 -17 126 -134 210 -263 187z m109 -93 c16 -9 36 -29 45 -45 72
-139 -150 -510 -305 -510 -21 0 -42 11 -68 34 -36 33 -37 37 -36 98 2 130 141
365 246 417 51 25 79 26 118 6z"/>
<path d="M22817 5431 c-15 -10 -30 -20 -33 -24 -4 -4 355 -639 371 -655 2 -2
20 6 42 16 28 15 50 41 87 102 l49 81 -28 29 -29 30 -38 -61 c-22 -35 -43 -58
-48 -53 -4 5 -79 132 -165 282 -86 149 -162 272 -169 271 -6 0 -23 -8 -39 -18z"/>
<path d="M22455 5222 c-80 -28 -144 -70 -178 -119 -67 -93 -75 -175 -27 -271
67 -134 204 -165 358 -82 l53 29 8 -22 c5 -12 20 -51 35 -86 14 -36 26 -66 26
-67 0 -1 -56 -35 -125 -74 l-125 -72 22 -39 c12 -21 24 -37 27 -35 217 122
311 181 308 190 -15 38 -131 322 -133 325 -2 1 -30 -14 -62 -34 -135 -83 -219
-84 -285 -6 -91 109 -10 255 163 292 52 11 57 18 44 67 -8 27 -38 29 -109 4z"/>
<path d="M9567 5088 c-30 -51 -107 -185 -172 -298 -65 -113 -126 -219 -136
-236 l-19 -32 35 -20 c26 -16 59 -22 133 -27 l99 -6 11 40 10 41 -37 1 c-20 1
-53 2 -73 2 -21 0 -38 2 -38 4 0 2 72 129 160 281 88 152 161 282 162 287 0 6
-17 20 -40 33 l-40 23 -55 -93z"/>
<path d="M9976 4924 c-14 -30 -15 -39 -4 -45 7 -5 70 -41 140 -81 70 -40 128
-75 128 -78 0 -3 -57 -20 -127 -37 -274 -70 -403 -173 -403 -322 0 -130 121
-234 275 -235 l70 -1 3 40 3 40 -58 1 c-97 1 -175 54 -189 129 -7 41 21 109
62 147 57 53 196 105 422 159 81 19 95 26 107 50 11 21 12 29 2 36 -18 14
-379 221 -398 228 -10 4 -20 -5 -33 -31z"/>
<path d="M21860 4881 c-114 -36 -170 -113 -170 -233 0 -87 29 -177 88 -276
138 -231 318 -297 451 -164 71 71 87 154 56 276 -37 140 -165 320 -264 371
-53 26 -124 38 -161 26z m121 -115 c85 -56 194 -236 219 -360 10 -50 9 -65 -5
-102 -26 -68 -97 -94 -164 -60 -45 24 -134 127 -174 204 -74 140 -92 223 -62
286 33 69 109 83 186 32z"/>
<path d="M12078 4039 c-117 -18 -207 -126 -208 -249 0 -105 81 -200 197 -230
26 -6 53 -14 60 -15 8 -3 0 -31 -25 -87 -20 -46 -37 -85 -39 -87 -2 -4 -234
54 -270 66 -10 4 -40 -74 -31 -82 10 -9 344 -92 350 -87 9 10 139 324 135 328
-2 2 -39 13 -82 24 -130 33 -185 85 -185 175 0 78 42 133 117 155 22 7 56 10
75 6 35 -7 119 -45 154 -71 20 -15 23 -14 42 17 24 37 19 47 -39 84 -73 46
-167 66 -251 53z"/>
<path d="M19817 4028 c-28 -8 -36 -14 -33 -27 3 -9 46 -169 96 -356 50 -187
93 -345 95 -351 2 -8 16 -9 48 -1 36 8 59 24 112 77 57 58 65 70 56 86 -28 50
-27 50 -82 0 -38 -34 -55 -44 -60 -34 -4 7 -37 126 -74 263 -91 342 -95 355
-108 354 -7 -1 -29 -6 -50 -11z"/>
<path d="M19260 3891 c-120 -37 -187 -139 -178 -270 7 -93 46 -164 113 -206
42 -26 58 -30 119 -30 60 0 79 4 118 28 26 15 59 44 73 65 l25 37 0 -56 c0
-115 -91 -235 -209 -274 l-49 -16 10 -39 c6 -23 16 -40 24 -40 34 0 147 62
195 106 127 120 161 314 88 511 -28 74 -116 166 -174 182 -45 12 -118 13 -155
2z m157 -107 c33 -25 68 -83 84 -136 15 -54 -38 -146 -98 -169 -37 -14 -100
-11 -133 6 -63 32 -106 160 -81 237 31 93 147 124 228 62z"/>
<path d="M12674 3856 c-149 -36 -268 -176 -310 -363 -28 -128 -7 -240 58 -300
68 -63 186 -82 276 -43 97 42 155 134 156 246 1 62 -3 77 -29 119 -56 90 -184
131 -282 90 -46 -19 -46 -19 -32 8 30 57 83 108 144 138 60 29 71 31 137 27
40 -3 80 -9 89 -12 12 -5 19 3 28 35 7 22 11 42 9 44 -6 7 -132 25 -163 24
-16 0 -53 -6 -81 -13z m15 -334 c45 -33 63 -66 63 -116 0 -113 -70 -196 -166
-196 -43 0 -53 4 -86 38 -44 44 -56 86 -45 167 8 64 40 110 88 125 43 13 117
4 146 -18z"/>
<path d="M18773 3760 c-92 -19 -174 -79 -209 -155 -53 -113 -18 -249 80 -309
68 -43 181 -47 268 -11 14 5 17 -2 23 -47 3 -29 7 -73 8 -97 l2 -44 -133 -36
c-73 -20 -133 -40 -134 -44 -1 -20 14 -77 20 -77 4 0 83 20 175 45 93 25 170
45 171 45 2 0 -8 78 -20 173 -13 94 -23 177 -24 184 0 8 -18 5 -57 -9 -123
-43 -208 -34 -262 27 -57 65 -53 155 8 216 43 43 91 59 182 59 71 0 79 6 79
55 0 15 -7 25 -22 29 -30 8 -103 6 -155 -4z"/>
<path d="M13236 3729 c-3 -8 -42 -151 -86 -319 -45 -168 -87 -326 -95 -352
l-14 -48 42 -11 c42 -11 75 -7 190 22 35 9 37 12 37 49 0 22 -3 40 -7 40 -5
-1 -35 -7 -68 -15 -32 -8 -61 -13 -63 -11 -1 2 35 145 81 317 58 217 81 316
73 321 -6 3 -28 9 -48 13 -28 5 -39 4 -42 -6z"/>
<path d="M15782 1904 c-129 -34 -230 -108 -307 -224 -177 -266 -156 -671 45
-842 87 -75 231 -134 445 -182 303 -68 370 -118 370 -276 0 -87 -17 -129 -76
-190 -69 -71 -108 -85 -234 -85 -99 0 -116 3 -168 27 -88 42 -164 124 -223
243 -28 55 -56 115 -62 132 -11 32 -13 33 -68 33 l-57 0 7 -132 c3 -73 9 -186
12 -250 l7 -118 44 0 c35 0 55 8 101 41 l58 40 59 -36 c221 -133 481 -103 649
75 114 122 159 239 159 415 0 175 -49 304 -154 407 -85 83 -187 129 -380 173
-234 53 -284 72 -345 128 -68 62 -94 115 -94 195 0 77 29 156 81 221 67 85
171 131 299 131 214 0 371 -132 454 -380 l25 -75 55 -3 56 -3 0 276 0 275 -46
0 c-41 0 -52 -6 -116 -60 l-71 -60 -31 21 c-52 34 -148 76 -204 88 -72 15
-226 13 -290 -5z"/>
</g>
</svg>
